<?xml version="1.0" encoding="utf-8"?>
<svg version="1.1" id="Layer_1" xmlns="http://www.w3.org/2000/svg" xmlns:xlink="http://www.w3.org/1999/xlink" x="0px" y="0px"
	 viewBox="0 0 110.9 114.3" style="enable-background:new 0 0 110.9 114.3;" xml:space="preserve">
<style type="text/css">
	.st0{fill:#BFCCE5;}
	.st1{opacity:0.5;}
	.st2{fill:#003399;}
	.st3{fill:#FAFAFA;}
	.st4{fill:#263238;}
	.st5{fill:#EBEBEB;}
</style>
<g id="freepik--Message--inject-527">
	<path class="st0" d="M0.8,42.3l50.7-41c2.1-1.7,5.2-1.7,7.4,0L108,41.5"/>
	<g class="st1">
		<path class="st2" d="M0.8,42.3l50.7-41c2.1-1.7,5.2-1.7,7.4,0L108,41.5"/>
	</g>
	<polygon class="st0" points="0.9,42.3 107.9,41.5 110.9,114.3 0,113.3 	"/>
	<g>
		<polyline class="st2" points="107.9,41.5 54.2,84.4 0.9,42.3 		"/>
	</g>
	<polygon class="st3" points="6.2,46.5 6.1,12.8 99.8,11.7 100.9,47.1 54.2,84.4 	"/>
	<path class="st4" d="M85,28.5c0,0.1-14.3,0.2-32,0.3c-17.7,0.1-32,0.1-32,0.1c0-0.1,14.3-0.2,32-0.3S85,28.5,85,28.5z"/>
	<path class="st4" d="M85,38c0,0.1-14.3,0.2-32,0.3c-17.7,0.1-32,0.1-32,0.1s14.3-0.2,32-0.3C70.7,37.9,85,37.9,85,38z"/>
	<path class="st4" d="M85,48.9c0,0.1-14.3,0.2-32,0.3c-17.7,0.1-32,0.1-32,0.1c0-0.1,14.3-0.2,32-0.3S85,48.8,85,48.9z"/>
	<path class="st4" d="M85,59.7c0,0.1-13.7,0.2-30.6,0.3c-16.9,0.1-30.6,0.1-30.6,0.1s13.7-0.2,30.6-0.3S85,59.7,85,59.7z"/>
	<path class="st4" d="M73,69.3c-0.1,0-0.2,0-0.4,0h-1.1l-4,0.1l-13.1,0.2c-5.1,0.1-9.7,0.1-13.1,0.1h-4h-1.1c-0.1,0-0.2,0-0.4,0
		c0.1,0,0.2,0,0.4,0h1.1l4-0.1l13.1-0.2c5.1-0.1,9.7-0.1,13.1-0.1h4h1.1C72.8,69.3,72.9,69.3,73,69.3z"/>
	<path class="st4" d="M61,78.5c0,0.1-3.1,0.1-6.8,0.1s-6.8-0.1-6.8-0.1s3.1-0.1,6.8-0.1C57.9,78.4,61,78.4,61,78.5z"/>
	<circle class="st2" cx="86.4" cy="58.5" r="14.2"/>
	<polygon class="st5" points="86.4,50.7 86.4,50.7 86.4,50.7 86.4,50.7 80.2,56.3 83.9,56.3 83.9,64.3 86.2,64.3 86.5,64.3 
		88.8,64.3 88.8,56.3 92.6,56.3 	"/>
	<g>
		<path class="st4" d="M6.2,46.2"/>
		<path class="st4" d="M6.3,44L6.3,44c0-1.5,0-3.7,0-6.6c0-5.7,0-14.1-0.1-24.5l93.6-1.1c0.1,4.6,0.3,9.4,0.4,14.2
			c0.2,7,0.4,14.8,0.6,21.3l0.3-0.2c-0.2-6.6-0.4-14.2-0.6-21.1c-0.1-4.8-0.3-9.6-0.4-14.3v-0.1H100L6.2,12.7H6.1v0.1
			c0.1,10.5,0.1,18.9,0.2,24.6C6.2,40.3,6.3,42.5,6.3,44z"/>
	</g>
</g>
</svg>
