<svg xmlns="http://www.w3.org/2000/svg" enable-background="new 0 0 1200 900" viewBox="0 0 1200 900"><path fill="#edf5fc" d="M975.362 684.454c-8.08-13.181-14.471-28.396-7.915-41.781 3.78-7.72 11.17-12.9 17.86-18.3 30.27-24.38 51.38-59.87 58.36-98.1 5.09-27.88 2.53-57.89-11.63-82.44-26.48-45.94-85.72-61.84-138.73-60.82-53.02 1.02-105.82 14.52-158.56 9.03-15.8-1.65-32.54-5.61-43.19-17.39-22.78-25.2-4.16-65.92-12.74-98.79-5.3-20.29-21.24-36.63-39.86-46.28-18.61-9.65-39.74-13.33-60.64-15.01a352.57 352.57 0 0 0-104.86 7.31c-43.54 9.73-89.84 32.7-103.02 75.33-8.42 27.22-1.18 57.28 12.63 82.2 6.34 11.44 14.19 22.58 16.01 35.52 2.94 20.91-10.93 40.99-28.14 53.21-23.96 17.02-53.99 22.8-83.16 26.38-29.17 3.59-59.04 5.53-86.38 16.33-27.34 10.8-52.41 32.58-58.01 61.44-4.74 24.36 5.25 49.76 20.99 68.95 18.151 22.136 44.242 37.404 72.23 43.211h738.755z" class="coloredf5fc svgShape"/><path fill="#2a0054" d="M229.248 681.8c-.02.24.17.45.41.45h3.123c.21 0 .38-.16.4-.36l.381-3.083h1.632l.3.68.22.5.89 2.013c.06.15.211.25.371.25h16.194c.23 0 .41-.18.41-.41v-2.233c0-.8-.23-1.57-.67-2.232-.1-.18-.23-.35-.38-.5a3.83 3.83 0 0 0-1.171-.931l-7.146-3.733s-.731-2.722-.911-2.903c-.18-.18-12.932 0-12.932 0l-.54 5.976-.04.5-.54 6.015z" class="color2a0054 svgShape"/><path fill="#ffffff" d="m235.494 679.487.22.5h11.31c.13 0 .25-.11.25-.25v-2.362h5.635c-.1-.18-.23-.35-.38-.5h-5.505c-.14 0-.25.11-.25.25v2.362h-11.28z" class="colorfff svgShape"/><path fill="#2a0054" d="M267.156 681.8c-.02.24.17.45.41.45h3.123c.21 0 .38-.16.4-.36l.38-3.083h1.632l.3.68.22.5.891 2.013c.06.15.21.25.37.25h16.195c.23 0 .41-.18.41-.41v-2.233c0-.8-.23-1.57-.67-2.232-.1-.18-.23-.35-.38-.5a3.83 3.83 0 0 0-1.172-.931l-7.146-3.733s-.73-2.722-.91-2.903c-.18-.18-12.932 0-12.932 0l-.54 5.976-.04.5-.541 6.015z" class="color2a0054 svgShape"/><path fill="#ffffff" d="m273.401 679.487.22.5h11.31c.13 0 .25-.11.25-.25v-2.362h5.636c-.1-.18-.23-.35-.38-.5h-5.505c-.14 0-.25.11-.25.25v2.362h-11.28z" class="colorfff svgShape"/><path d="m207.616 645.507-7.456 34.713c-.347 1.619-1.951 2.635-3.57 2.287-1.62-.348-2.665-1.933-2.317-3.552l7.455-34.713a3.02 3.02 0 0 1 3.576-2.311 3.02 3.02 0 0 1 2.312 3.576zM166.99 631.925l-13.41 48.295c-.347 1.619-1.951 2.635-3.57 2.287-1.62-.348-2.665-1.933-2.318-3.552l13.41-48.295a3.02 3.02 0 0 1 3.577-2.311 3.02 3.02 0 0 1 2.311 3.576z" fill="#000000" class="color000 svgShape"/><path fill="#719bff" d="M256.053 635.997c-19.446 11.568-43.158 15.983-65.339 11.668-22.206-4.341-42.656-17.54-55.302-36.283-12.621-18.768-17.138-42.932-11.542-64.862 2.484-9.81 7.025-19.27 14.252-26.37 7.477-7.353 17.363-11.518 27.776-12.748 9.66-1.154 19.748.226 28.755 3.915 7.653 3.136 14.654 7.778 20.776 13.348 5.47 4.968 10.288 10.639 14.428 16.762 2.058 3.01 3.663 6.473 5.947 9.309 2.032 2.56 3.814 4.491 5.32 7.502 8.405 16.962 16.685 34.024 25.016 51.037.502 1.028 1.029 2.082 1.48 3.161.778 1.832 1.38 3.739 1.506 5.72.476 7.754-6.399 13.877-13.073 17.841z" class="color719bff svgShape"/><path fill="#ffffff" d="M207.694 649.78a89.42 89.42 0 0 1-17.075-1.625c-22.693-4.435-42.966-17.737-55.622-36.493-12.83-19.08-17.171-43.478-11.612-65.266 2.75-10.857 7.724-20.057 14.386-26.604 7.24-7.117 16.945-11.573 28.069-12.886a.501.501 0 0 1 .383.876c-1.458 1.25-2.915 2.446-4.355 3.628-5.162 4.237-10.038 8.239-14.079 13.97-5.013 7.069-8.621 15.18-10.434 23.455-3.917 18.168.448 37.836 11.678 52.61 7.78 10.234 18.662 18.22 31.47 23.095 26.625 10.139 59.09 5.457 86.845-12.523a.502.502 0 0 1 .732.224c.94 2.213 1.43 4.083 1.545 5.884.51 8.287-6.961 14.527-13.317 18.302-14.71 8.75-31.766 13.354-48.614 13.354zm-43.42-141.656c-10.197 1.52-19.09 5.782-25.801 12.382-6.533 6.418-11.415 15.456-14.119 26.137-5.49 21.517-1.2 45.614 11.473 64.46 12.508 18.538 32.548 31.686 54.983 36.071 21.78 4.237 45.465.007 64.987-11.606 6.117-3.634 13.308-9.598 12.83-17.38-.097-1.536-.493-3.14-1.24-5.007-27.912 17.885-60.479 22.484-87.239 12.293-12.984-4.94-24.018-13.04-31.91-23.424-11.405-15.004-15.838-34.976-11.86-53.427 1.842-8.408 5.505-16.644 10.595-23.82 4.118-5.841 9.045-9.885 14.26-14.166a367.73 367.73 0 0 0 3.04-2.513z" class="colorfff svgShape"/><path fill="#ffc837" d="M264.966 668.47c-.113 2.847 19.135 3.604 19.247.758l3.258-65.673a14.01 14.01 0 0 0-9.33-13.603l-62.202-5.069-18.597 5.451.056 4.959c-.89 12.234 8.796 20.274 21.063 20.274h38.985l7.52 52.904z" class="colorffc837 svgShape"/><path fill="#ffc837" d="M228.084 670.87c.056 1.607 16.666 1.034 16.61-.572l8.914-63.845a14.01 14.01 0 0 0-9.33-13.604l-46.902-6.606-35.557 4.091.057 4.959c-.89 12.234 8.795 22.651 21.063 22.651h38.985l6.16 52.926z" class="colorffc837 svgShape"/><path fill="#ffffff" d="M169.578 608.999c-.009-.094.521-.113 1.454-.492.91-.376 2.274-1.21 3.298-2.947.872-1.45 1.163-3.212 1.037-4.917-.13-1.719-.66-3.393-1.417-4.958-.878-1.859-1.734-3.167-2.255-4.063-.532-.89-.773-1.354-.711-1.396.06-.041.412.343 1.044 1.173.62.836 1.563 2.1 2.528 3.994.782 1.618 1.345 3.378 1.482 5.2.132 1.811-.17 3.711-1.132 5.314-1.174 1.867-2.725 2.688-3.741 2.978-1.044.291-1.59.165-1.587.114zM240.886 592.082c-.002-.053.689-.176 2.073-.004 1.362.185 3.49.707 5.766 2.407 1.914 1.441 3.38 3.462 4.22 5.694.86 2.23 1.185 4.62 1.197 6.978-.032 2.787-.395 4.83-.622 6.18-.244 1.35-.416 2.012-.487 2.002-.075-.01-.039-.695.09-2.056.112-1.36.376-3.403.347-6.122-.012-2.298-.33-4.608-1.153-6.74-.804-2.134-2.183-4.03-4.001-5.403-2.124-1.661-4.127-2.255-5.426-2.546-1.32-.279-2.006-.297-2.004-.39z" class="colorfff svgShape"/><path fill="#ffbdae" d="M219.105 546.663c.17.225 10.347 19.514 10.347 19.514s12.934 9.84 12.766 9.897-7.03 5.904-6.973 6.073c.056.169-21.362 3.09-28.399-8.564-.714-1.182-3.149-24.333-3.149-24.333l15.408-2.587z" class="colorffbdae svgShape"/><path fill="#f03232" d="M205.595 524.335s11.092 7.483 15.535 22.328c0 0-19.85 7.48-20.132 7.086-.281-.394-3.262-11.19-3.262-11.19l7.86-18.224z" class="colorf03232 svgShape"/><path fill="#f03232" d="M206.308 525.237c-4.683-6.268-39.223-10.177-52.688 1.532-3.584 3.117 5.655 64.797 5.655 64.797.411 4.792 59.58-2.327 59.17-7.12 0 0-7.063-52.418-12.137-59.209z" class="colorf03232 svgShape"/><path fill="#2a0054" d="m185.771 587.742 40.871-2.892 2.883 2.892-2.562 3.578s-14.67.128-15.311 0-8.072-1.41-9.353-1.41c-1.281 0-12.62.577-12.876.577s-3.652-2.745-3.652-2.745z" class="color2a0054 svgShape"/><path fill="#2a0054" d="M215.98 591.502c-2.313 0-4.13-.015-4.353-.06-.765-.153-8.083-1.406-9.328-1.406-.882 0-6.64.278-10.08.445-1.784.086-2.718.131-2.796.131-.262 0-2.45-1.737-3.73-2.773a.125.125 0 0 1 .07-.222l40.87-2.892a.118.118 0 0 1 .098.037l2.882 2.892a.124.124 0 0 1 .013.16l-2.562 3.579a.124.124 0 0 1-.1.052c-.393.003-6.583.057-10.984.057zm-13.68-1.716c1.3 0 8.84 1.304 9.376 1.411.494.1 10.134.043 15.222-.002l2.464-3.44-2.768-2.777-40.496 2.866c1.265 1.017 3.109 2.457 3.34 2.52l2.768-.133c3.443-.166 9.205-.445 10.093-.445z" class="color2a0054 svgShape"/><path fill="#1258ff" d="M217.193 593.82h45.39c.803 0 1.515-.517 1.762-1.281l12.875-39.726a1.853 1.853 0 0 0-1.763-2.425h-44.188l-14.076 43.432z" class="color1258ff svgShape"/><path fill="#ffffff" d="M248.02 573.19c-.061-.09.375-.58 1.542-.547.562.037 1.316.23 1.985.874.666.639 1.12 1.737.915 2.97-.18 1.047-.95 1.995-1.902 2.416-.93.453-2.128.464-3.06-.027-.936-.474-1.571-1.236-2.082-1.988-.505-.755-.933-1.586-1.18-2.51-.264-1.091-.175-2.17.199-2.97.36-.798.897-1.317 1.384-1.613 1.021-.584 1.646-.32 1.623-.211.019.172-.506.24-1.14.85-.627.598-1.318 1.872-.766 3.6.194.73.553 1.443.997 2.105.439.654.961 1.235 1.566 1.534 1.15.646 2.861-.14 3.04-1.444.182-.763-.044-1.507-.411-1.954-.372-.47-.881-.715-1.294-.841-.852-.24-1.357-.08-1.415-.244z" class="colorfff svgShape"/><path fill="#2a0054" d="M213.429 593.82h3.765l14.07-43.433h-2.449c-.778 0-1.47.51-1.71 1.249L213.43 593.82z" class="color2a0054 svgShape"/><path fill="#2a0054" d="M217.194 593.945h-3.765a.126.126 0 0 1-.12-.164l13.678-42.183a1.92 1.92 0 0 1 1.828-1.336h2.45a.126.126 0 0 1 .12.164l-14.072 43.433a.126.126 0 0 1-.12.086zm-3.594-.25h3.503l13.99-43.183h-2.278a1.67 1.67 0 0 0-1.59 1.163l-13.625 42.02z" class="color2a0054 svgShape"/><path fill="#2a0054" d="M217.198 587.743v6.077h-36.454a6.07 6.07 0 0 1 6.067-6.077h30.387z" class="color2a0054 svgShape"/><path fill="#2a0054" d="M217.198 593.945h-36.454a.125.125 0 0 1-.125-.125c0-3.42 2.778-6.202 6.192-6.202h30.387c.069 0 .125.056.125.125v6.077c0 .07-.056.125-.125.125zm-36.328-.25h36.203v-5.827h-30.262c-3.235 0-5.875 2.602-5.941 5.827z" class="color2a0054 svgShape"/><path fill="#ffbdae" d="M215.925 584.974c-1.22 11.882-20.599 4.062-20.599 4.062-.12 0-19.7.73-38.473 1.15-8.181.18-14.802-6.59-14.452-14.772l-.06-18.833 23.214-.39.57 14.092 32.612 6.351s5.82-4.74 7.41-2.05c1.421 2.4-2.13 3.7-2.9 3.95 1.68-.44 13.838-4.792 12.678 6.44z" class="colorffbdae svgShape"/><path fill="#f03232" d="M166.436 557.22c-.127 3.567-25.746 2.18-25.964 1.199 0 0 1.966-13.034 3.695-18.083 4.07-11.888 10.371-14.894 11.169-14.897 3.433-.013 9.314 1.662 11.847 9.037 1.747 5.083-.687 21.117-.747 22.743z" class="colorf03232 svgShape"/><path fill="#ffffff" d="M167.309 542.187c-.077-.018-.034-.402.024-1.157.05-.755.115-1.894-.104-3.386a12.02 12.02 0 0 0-3.223-6.79c-1.015-1.112-1.939-1.782-2.553-2.222-.622-.432-.946-.643-.911-.716.028-.06.413.027 1.116.373.694.352 1.72.973 2.837 2.103a12.696 12.696 0 0 1 3.4 7.166c.17 1.582.002 2.77-.165 3.53-.178.764-.355 1.116-.421 1.1zM167.238 550.63c.143.013.194.839.094 2.488l-.201 2.089c-.092.711-.077 1.352-.267 2.146-.15.476-.503.815-.805.979-.308.174-.58.24-.794.278-.429.067-.643.021-.656-.047-.016-.075.18-.168.537-.336.339-.172.918-.427 1.075-1.07.142-.567.157-1.34.24-2.015l.202-2.088c.221-1.638.425-2.439.575-2.425zM209.606 534.557c.12-.046.788 1.24 1.628 4.025a54.19 54.19 0 0 1 1.475 7.233c.317 2.89.206 4.334.074 4.34-.162.009-.307-1.414-.74-4.25-.323-2.41-.81-4.8-1.457-7.144-.712-2.782-1.136-4.148-.98-4.204zM230.064 668.05c-.036.003-.092-.371-.166-1.123l-.287-3.389-1.13-13.61c-.834-10.277-1.806-20.546-2.458-30.846l-.262-5.148-5.31-.295-3.978-.25a87.84 87.84 0 0 1-2.38-.188c-.528-.052-.79-.094-.79-.125s.267-.049.798-.054 1.326.003 2.387.025l3.985.106 5.86.202.361 5.684c.651 10.286 1.623 20.553 2.458 30.833.467 6.071.736 10.615.858 13.642.07 1.512.09 2.647.1 3.402.007.755-.009 1.133-.046 1.135z" class="colorfff svgShape"/><path fill="#ffbdae" d="M171.507 508.928v11.336l11.726 7.653.9-12.551s9.387.779 9.823-4.703c.213-2.7.019-7.199-.074-10.186a89.731 89.731 0 0 0-.074-1.818c-1.642.501-3.433.501-5.13.204-2.264-.399-4.397-1.299-6.521-2.161-1.336-.538-2.997-1.02-4.082-.084-.696.612-.881 1.605-.946 2.533-.056.918-.056 1.892-.501 2.699-.455.807-1.438 1.15-2.19.603 0 0-5.203-3.673-7.123 0-.13.25-.214.51-.288.742V503.251h-.019c-.742 3.293 4.5 5.677 4.5 5.677z" class="colorffbdae svgShape"/><path fill="#ffbdae" d="M174.439 496.535v5.918c.751.547 1.734.204 2.189-.603.445-.807.445-1.781.5-2.7.066-.927.251-1.92.947-2.532 1.085-.937 2.746-.454 4.082.084 2.124.862 4.257 1.762 6.52 2.161 1.698.297 3.489.297 5.13-.204-.092-2.19-.194-3.71-.194-3.71s-5.297-4.49-5.844-4.49c-.557 0-8.952 2.662-9.35 2.81-.4.14-3.98 3.266-3.98 3.266z" class="colorffbdae svgShape"/><path fill="#253066" d="M179.748 513.988c.039-.069.42.097 1.188.398a10.91 10.91 0 0 0 1.993.637c.799.2 1.203.266 1.2.341 0 .071-.431.133-1.271-.012a11.279 11.279 0 0 1-2.054-.656c-.768-.369-1.09-.65-1.056-.708zM171.159 505.972c-.017.068-.143.113-.383.081-.234-.035-.602-.145-.98-.504-.601-.63-.761-1.79.003-2.48.46-.343.924-.31 1.165-.208.252.108.307.253.27.308-.064.138-.513-.044-.997.41-.4.33-.36 1.098.057 1.517.467.56.921.714.865.876z" class="color253066 svgShape"/><path fill="#2a0054" d="M171.507 508.928s-5.24-2.384-4.48-5.677v-.056c.074-.232.158-.491.288-.742 1.92-3.673 7.124 0 7.124 0 .751.547 1.734.204 2.189-.603.445-.807.445-1.781.5-2.7.066-.927.251-1.92.947-2.532 1.085-.937 2.746-.454 4.082.084 2.124.862 8.356.21 10.606-.259 9.098-1.898 5.385-13.115-.17-14.761-3.38-1.002-6.928.182-10.45.333-15.127.65-17.118 8.755-17.741 11.65-2.236 10.397 4.052 16.566 7.105 15.263z" class="color2a0054 svgShape"/><path fill="#ffffff" d="M267.033 654.78c-.071.009-.254-.955-.542-2.902-.289-1.948-.683-4.879-1.177-8.806-.822-6.653-1.475-13.335-2.515-19.94-.298-1.95-.602-3.645-.886-5.092-.264-1.452-.55-2.631-1.15-3.353-.584-.722-1.318-.949-1.768-.978-.467-.024-.698.089-.715.044-.014-.02.191-.209.714-.256.506-.036 1.354.143 2.074.93.728.782 1.083 2.068 1.39 3.497.331 1.447.675 3.146 1.005 5.1 1.045 6.643 1.697 13.315 2.52 19.97.432 3.933.732 6.876.906 8.837.173 1.96.219 2.94.144 2.95zM279.832 662.802c.012.135-1.05.38-3.23.481a54.268 54.268 0 0 1-5.536-.19c-2.166-.25-3.208-.565-3.187-.702.023-.154 1.096-.093 3.244.033 1.818.155 3.644.218 5.468.186 2.154.022 3.229.034 3.241.192zM241.413 666.784c.027.126-.757.463-2.44.636a19.931 19.931 0 0 1-4.278-.194c-1.659-.326-2.409-.733-2.37-.86.045-.154.854 0 2.472.194 1.366.212 2.755.275 4.135.189 1.63-.046 2.45-.127 2.48.035z" class="colorfff svgShape"/><path fill="#253066" d="M160.952 575.79c-.034-.005-.033-.19.024-.558.073-.362.216-.911.564-1.579a7.373 7.373 0 0 1 2.598-2.738c1.313-.75 2.103-.742 2.102-.698.028.098-.71.218-1.925.984a7.04 7.04 0 0 0-2.48 2.614c-.7 1.255-.781 1.999-.883 1.975z" class="color253066 svgShape"/><path fill="#9bb2e1" d="M383.576 497.283h-.036a147.96 147.96 0 0 1-5.997-.553.5.5 0 1 1 .113-.994c1.976.223 3.98.408 5.955.549a.5.5 0 0 1-.035.998zm-11.924-1.342a.505.505 0 0 1-.076-.006c-1.97-.302-3.966-.65-5.931-1.033a.5.5 0 1 1 .191-.981c1.952.38 3.934.725 5.892 1.026a.5.5 0 0 1-.076.994zm-11.776-2.291a.492.492 0 0 1-.115-.014 156.05 156.05 0 0 1-5.83-1.495.5.5 0 0 1 .267-.964c1.917.531 3.865 1.031 5.793 1.486a.5.5 0 0 1-.115.987zm-11.56-3.204a.497.497 0 0 1-.152-.024c-1.9-.606-3.818-1.258-5.698-1.937a.5.5 0 1 1 .34-.94 158.41 158.41 0 0 0 5.662 1.925.5.5 0 0 1-.152.976zm-11.284-4.074a.503.503 0 0 1-.187-.036c-1.848-.747-3.71-1.54-5.537-2.359a.5.5 0 1 1 .41-.913 161.06 161.06 0 0 0 5.502 2.344.5.5 0 0 1-.188.964zm-10.948-4.905a.5.5 0 0 1-.22-.052 164.761 164.761 0 0 1-5.348-2.76.5.5 0 1 1 .475-.88c1.75.944 3.539 1.867 5.315 2.743a.5.5 0 0 1-.222.949zm-10.557-5.698a.5.5 0 0 1-.253-.07 166.08 166.08 0 0 1-5.132-3.143.5.5 0 0 1 .539-.843c1.674 1.068 3.39 2.12 5.1 3.125a.5.5 0 0 1-.254.93zm-10.115-6.453a.5.5 0 0 1-.283-.089 165.887 165.887 0 0 1-4.89-3.508.5.5 0 0 1 .598-.802 164.804 164.804 0 0 0 4.86 3.488.5.5 0 0 1-.285.911zm-9.618-7.172a.498.498 0 0 1-.313-.11 164.5 164.5 0 0 1-4.62-3.856.5.5 0 1 1 .654-.756 162.935 162.935 0 0 0 4.593 3.833.5.5 0 0 1-.314.89zm-9.069-7.856a.498.498 0 0 1-.34-.134 163.568 163.568 0 0 1-4.326-4.186.5.5 0 0 1 .71-.706c1.399 1.406 2.845 2.806 4.297 4.161a.5.5 0 0 1-.34.865zm-8.464-8.503a.498.498 0 0 1-.367-.161 159.455 159.455 0 0 1-4-4.498.5.5 0 0 1 .76-.65 158.208 158.208 0 0 0 3.974 4.47.5.5 0 0 1-.367.839zm-7.801-9.115a.5.5 0 0 1-.393-.19 157.093 157.093 0 0 1-3.645-4.79.5.5 0 1 1 .807-.59 156.524 156.524 0 0 0 3.622 4.76.5.5 0 0 1-.391.81zm-7.08-9.685a.5.5 0 0 1-.415-.221 153.549 153.549 0 0 1-3.26-5.059.5.5 0 0 1 .852-.525 152.048 152.048 0 0 0 3.238 5.025.5.5 0 0 1-.414.78zm-6.293-10.21a.5.5 0 0 1-.437-.254 148.334 148.334 0 0 1-2.843-5.304.5.5 0 0 1 .89-.454c.9 1.761 1.85 3.534 2.825 5.267a.5.5 0 0 1-.435.746zm-5.452-10.684a.5.5 0 0 1-.454-.291 148.069 148.069 0 0 1-2.403-5.52.5.5 0 1 1 .924-.38c.755 1.836 1.559 3.68 2.387 5.482a.5.5 0 0 1-.454.709zm-4.566-11.094a.5.5 0 0 1-.47-.329c-.682-1.869-1.34-3.785-1.953-5.693a.5.5 0 0 1 .952-.306c.61 1.896 1.262 3.8 1.94 5.656a.5.5 0 0 1-.469.672zm-3.67-11.422a.5.5 0 0 1-.481-.366 156.785 156.785 0 0 1-1.504-5.827.5.5 0 1 1 .973-.232c.46 1.937.963 3.886 1.494 5.79a.5.5 0 0 1-.482.635zm-2.775-11.672a.5.5 0 0 1-.49-.403c-.388-1.96-.743-3.954-1.056-5.924a.5.5 0 1 1 .988-.157c.31 1.958.664 3.939 1.05 5.887a.5.5 0 0 1-.492.597zm-1.883-11.848a.5.5 0 0 1-.496-.44c-.24-1.98-.445-3.995-.611-5.987a.5.5 0 0 1 .997-.083c.165 1.98.37 3.982.607 5.95a.5.5 0 0 1-.497.56zm653.232-6.653c-.277 0-.512-.224-.512-.5s.212-.5.488-.5h.024c1.975 0 3.98-.027 5.958-.08.31-.012.505.21.513.486a.5.5 0 0 1-.486.513c-1.988.054-4.002.081-5.985.081zm-6.023-.082h-.014a220.182 220.182 0 0 1-6.008-.247.5.5 0 0 1 .054-.999c1.977.109 3.99.191 5.982.246a.5.5 0 0 1-.014 1zm17.985-.24a.5.5 0 0 1-.026-1c1.985-.107 3.994-.243 5.97-.403a.5.5 0 0 1 .081.997 223.495 223.495 0 0 1-6.025.405zm-29.965-.416-.04-.001c-1.978-.16-3.991-.346-5.983-.552a.5.5 0 1 1 .103-.995c1.985.205 3.99.39 5.96.55a.5.5 0 0 1-.04.998zm41.921-.553a.5.5 0 0 1-.053-.997c1.973-.214 3.973-.457 5.944-.724a.5.5 0 0 1 .134.991c-1.98.268-3.988.513-5.97.727a.51.51 0 0 1-.055.003zm-53.846-.68a.501.501 0 0 1-.063-.005c-1.987-.25-3.97-.522-5.949-.815a.5.5 0 0 1 .147-.989c1.971.292 3.947.562 5.927.812a.5.5 0 0 1-.062.996zm65.738-.932a.5.5 0 0 1-.08-.994c1.965-.32 3.95-.673 5.896-1.046a.5.5 0 1 1 .188.982c-1.956.375-3.948.729-5.923 1.051a.482.482 0 0 1-.08.007zm-77.598-.823a.492.492 0 0 1-.084-.007c-1.975-.335-3.945-.69-5.912-1.065a.5.5 0 0 1 .188-.983c1.96.374 3.923.729 5.89 1.062a.5.5 0 0 1-.082.993zm89.387-1.437a.5.5 0 0 1-.107-.988c1.945-.428 3.907-.89 5.832-1.37a.5.5 0 0 1 .242.97c-1.934.483-3.905.946-5.859 1.377a.495.495 0 0 1-.108.011zm-701.828-.14a.5.5 0 0 1-.5-.476c-.092-1.994-.149-4.018-.168-6.016a.5.5 0 0 1 .495-.505c.321.017.502.22.505.495.02 1.986.075 3.997.168 5.98a.5.5 0 0 1-.477.522h-.023zm600.66-.669a.508.508 0 0 1-.104-.01c-1.96-.415-3.915-.849-5.867-1.3a.5.5 0 1 1 .226-.975c1.945.45 3.894.883 5.848 1.296a.5.5 0 0 1-.103.99zm112.819-2.103a.5.5 0 0 1-.135-.981c1.92-.538 3.853-1.11 5.745-1.7a.499.499 0 1 1 .298.954 209.708 209.708 0 0 1-5.773 1.709.495.495 0 0 1-.135.018zm-124.508-.604a.505.505 0 0 1-.122-.016c-1.943-.488-3.881-.995-5.815-1.519a.5.5 0 1 1 .261-.965c1.929.523 3.86 1.028 5.798 1.515a.5.5 0 0 1-.122.985zm135.974-2.97a.5.5 0 0 1-.163-.973c1.885-.65 3.782-1.334 5.636-2.034a.5.5 0 1 1 .354.935c-1.864.704-3.77 1.392-5.665 2.044a.499.499 0 0 1-.162.027zm-147.56-.167a.5.5 0 0 1-.138-.02 357.133 357.133 0 0 1-5.76-1.722.5.5 0 1 1 .295-.956c1.91.588 3.825 1.161 5.743 1.717a.5.5 0 0 1-.14.98zm-11.472-3.534a.496.496 0 0 1-.155-.025 387.14 387.14 0 0 1-5.7-1.908.5.5 0 0 1 .325-.946c1.891.65 3.786 1.284 5.685 1.903a.5.5 0 0 1-.155.976zm170.269-.547a.5.5 0 0 1-.191-.963c1.843-.762 3.694-1.56 5.501-2.374a.5.5 0 0 1 .41.912c-1.816.818-3.676 1.62-5.53 2.386a.502.502 0 0 1-.19.039zm-736.3-1.402h-.013a.5.5 0 0 1-.487-.513c.053-1.993.144-4.016.27-6.012a.5.5 0 1 1 .998.063 164.59 164.59 0 0 0-.268 5.975.5.5 0 0 1-.5.487zm554.675-1.95a.504.504 0 0 1-.17-.029 420.367 420.367 0 0 1-5.64-2.077.5.5 0 1 1 .353-.936 415.02 415.02 0 0 0 5.627 2.072.5.5 0 0 1-.17.97zm192.578-1.583a.5.5 0 0 1-.22-.949c1.794-.878 3.59-1.793 5.337-2.72a.5.5 0 0 1 .47.883 184.205 184.205 0 0 1-5.367 2.735.5.5 0 0 1-.22.051zm-203.815-2.645a.5.5 0 0 1-.182-.035 470.1 470.1 0 0 1-5.58-2.232.5.5 0 1 1 .376-.926c1.853.755 3.71 1.497 5.569 2.227a.5.5 0 0 1-.183.966zm214.426-2.987a.5.5 0 0 1-.25-.933 173.857 173.857 0 0 0 5.142-3.073.5.5 0 0 1 .528.85 175.873 175.873 0 0 1-5.171 3.09.497.497 0 0 1-.249.066zm-225.546-1.543a.502.502 0 0 1-.195-.04 503.363 503.363 0 0 1-5.522-2.37.5.5 0 1 1 .4-.917c1.833.8 3.67 1.589 5.511 2.366a.5.5 0 0 1-.194.96zm-531.562-1.266c-.017 0-.034 0-.05-.002a.5.5 0 0 1-.448-.548c.198-1.988.436-3.999.706-5.976a.5.5 0 0 1 .991.135 164.175 164.175 0 0 0-.702 5.941.5.5 0 0 1-.497.45zm767.309-3.53a.5.5 0 0 1-.28-.915 165.715 165.715 0 0 0 4.91-3.427.5.5 0 0 1 .587.81 166.593 166.593 0 0 1-4.939 3.447.497.497 0 0 1-.278.085zm-246.753-.004a.496.496 0 0 1-.205-.044 572.248 572.248 0 0 1-5.466-2.495.5.5 0 0 1 .42-.908c1.815.84 3.634 1.67 5.456 2.49a.5.5 0 0 1-.205.957zm-10.896-5.042a.498.498 0 0 1-.214-.049 625.587 625.587 0 0 1-5.413-2.605.5.5 0 1 1 .438-.9c1.798.877 3.6 1.744 5.405 2.602a.5.5 0 0 1-.216.952zm267.366-2.006a.499.499 0 0 1-.309-.893 156.697 156.697 0 0 0 4.637-3.78.5.5 0 1 1 .647.763 157.279 157.279 0 0 1-4.667 3.804.498.498 0 0 1-.308.106zm-775.401-1.305a.5.5 0 0 1-.493-.585c.342-1.966.726-3.954 1.14-5.91a.499.499 0 1 1 .98.208 163.395 163.395 0 0 0-1.135 5.873.5.5 0 0 1-.492.414zm497.242-1.946a.5.5 0 0 1-.222-.052 715.163 715.163 0 0 1-5.364-2.703.5.5 0 1 1 .455-.891c1.78.907 3.566 1.807 5.355 2.699a.5.5 0 0 1-.224.947zm287.311-4.508a.498.498 0 0 1-.337-.869 149.973 149.973 0 0 0 4.323-4.127.5.5 0 0 1 .705.71 151.016 151.016 0 0 1-4.353 4.154.497.497 0 0 1-.338.132zm-298.006-.937a.497.497 0 0 1-.23-.056 809.193 809.193 0 0 1-5.318-2.788.5.5 0 1 1 .468-.884 818.48 818.48 0 0 0 5.311 2.784.5.5 0 0 1-.23.944zm-484.056-4.344a.5.5 0 0 1-.485-.622c.486-1.937 1.016-3.891 1.575-5.809a.5.5 0 1 1 .96.28 162.025 162.025 0 0 0-1.565 5.772.5.5 0 0 1-.485.379zm473.448-1.266a.496.496 0 0 1-.237-.06 913.33 913.33 0 0 1-5.277-2.86.5.5 0 1 1 .48-.877c1.753.957 3.51 1.91 5.271 2.857a.5.5 0 0 1-.237.94zm317.119-1.906a.5.5 0 0 1-.367-.84 143.379 143.379 0 0 0 3.969-4.462.5.5 0 1 1 .76.649 143.83 143.83 0 0 1-3.995 4.493.498.498 0 0 1-.367.16zm-327.649-3.843a.497.497 0 0 1-.241-.063c-1.75-.97-3.497-1.944-5.241-2.922a.5.5 0 1 1 .49-.872c1.74.977 3.487 1.95 5.235 2.92a.5.5 0 0 1-.243.937zm-459.563-4.504a.5.5 0 0 1-.475-.658c.63-1.896 1.306-3.805 2.007-5.674a.5.5 0 0 1 .937.351 155.877 155.877 0 0 0-1.995 5.639.5.5 0 0 1-.474.342zm794.983-.769a.5.5 0 0 1-.393-.808 138.68 138.68 0 0 0 3.573-4.776.5.5 0 0 1 .813.582 139.82 139.82 0 0 1-3.598 4.81.5.5 0 0 1-.395.192zm-345.88-.595a.497.497 0 0 1-.247-.065c-1.74-.988-3.477-1.979-5.21-2.972a.5.5 0 1 1 .497-.868c1.732.993 3.468 1.983 5.207 2.97a.5.5 0 0 1-.248.935zm-10.404-5.964a.498.498 0 0 1-.25-.067c-1.731-1.001-3.461-2.005-5.191-3.012a.5.5 0 1 1 .503-.865c1.729 1.007 3.459 2.01 5.189 3.011a.5.5 0 0 1-.251.933zm363.252-3.187a.5.5 0 0 1-.418-.773c1.08-1.658 2.139-3.365 3.147-5.072a.5.5 0 0 1 .861.509 139.182 139.182 0 0 1-3.17 5.109.5.5 0 0 1-.42.227zm-797.737-.717a.498.498 0 0 1-.46-.694 155.087 155.087 0 0 1 2.436-5.503.5.5 0 1 1 .907.422 154.353 154.353 0 0 0-2.421 5.468.5.5 0 0 1-.462.307zm424.11-2.133a.494.494 0 0 1-.251-.069l-5.18-3.036a.5.5 0 0 1 .508-.862l5.177 3.035a.5.5 0 0 1-.253.932zm-10.351-6.078a.496.496 0 0 1-.253-.07l-5.17-3.046a.5.5 0 0 1 .507-.862l5.17 3.047a.5.5 0 0 1-.254.93zm-408.69-2.663a.499.499 0 0 1-.443-.729 151.62 151.62 0 0 1 2.861-5.295.5.5 0 1 1 .87.493 151.75 151.75 0 0 0-2.843 5.26.5.5 0 0 1-.444.271zm398.35-3.432a.496.496 0 0 1-.254-.07l-5.17-3.045a.5.5 0 1 1 .507-.862l5.171 3.046a.5.5 0 0 1-.254.931zm-10.344-6.087a.496.496 0 0 1-.252-.068 3220.18 3220.18 0 0 0-5.177-3.033.5.5 0 0 1 .505-.864 3221.61 3221.61 0 0 1 5.177 3.034.5.5 0 0 1-.253.931zm-382.091-.917a.5.5 0 0 1-.424-.764c.87-1.4 1.772-2.8 2.682-4.162l.598-.886a.5.5 0 0 1 .827.562l-.593.88c-.904 1.352-1.8 2.743-2.665 4.134a.5.5 0 0 1-.425.236zm371.73-5.139a.496.496 0 0 1-.25-.068 2030.592 2030.592 0 0 0-5.189-3.008.5.5 0 1 1 .5-.866c1.732 1 3.463 2.004 5.192 3.01a.5.5 0 0 1-.252.932zm-364.997-4.79a.5.5 0 0 1-.402-.796 159.13 159.13 0 0 1 3.659-4.78.5.5 0 1 1 .782.624 157.918 157.918 0 0 0-3.636 4.748.5.5 0 0 1-.403.204zm354.608-1.212a.496.496 0 0 1-.248-.066c-1.734-.994-3.47-1.985-5.21-2.972a.5.5 0 0 1 .495-.87c1.74.988 3.477 1.98 5.212 2.974a.5.5 0 0 1-.249.934zm-10.434-5.923a.497.497 0 0 1-.245-.064c-1.742-.98-3.487-1.954-5.234-2.924a.5.5 0 0 1 .485-.874c1.749.97 3.495 1.946 5.24 2.926a.5.5 0 0 1-.246.936zm-336.701-2.251a.5.5 0 0 1-.38-.826 162.953 162.953 0 0 1 4.008-4.49.5.5 0 1 1 .733.679 161.713 161.713 0 0 0-3.982 4.462.5.5 0 0 1-.38.175zm326.21-3.57a.498.498 0 0 1-.24-.06 932.88 932.88 0 0 0-5.267-2.863.5.5 0 1 1 .475-.88c1.76.949 3.518 1.904 5.273 2.865a.5.5 0 0 1-.24.939zM283.41 228.33a.5.5 0 0 1-.354-.853 164.547 164.547 0 0 1 4.328-4.182.5.5 0 0 1 .682.732 163.708 163.708 0 0 0-4.302 4.156.499.499 0 0 1-.354.147zm307.5-.46a.498.498 0 0 1-.235-.059 807.078 807.078 0 0 0-5.305-2.79.5.5 0 1 1 .461-.886c1.774.924 3.545 1.855 5.313 2.793a.5.5 0 0 1-.235.941zm-10.642-5.541a.5.5 0 0 1-.227-.055c-1.779-.908-3.562-1.81-5.35-2.702a.5.5 0 1 1 .448-.895c1.79.894 3.575 1.797 5.357 2.707a.5.5 0 0 1-.228.945zm-288.08-2.176a.5.5 0 0 1-.327-.878 165.19 165.19 0 0 1 4.623-3.853.5.5 0 1 1 .626.78 164.31 164.31 0 0 0-4.594 3.83.498.498 0 0 1-.327.121zm277.35-3.184a.496.496 0 0 1-.22-.05 595.524 595.524 0 0 0-5.398-2.603.5.5 0 1 1 .43-.903c1.806.86 3.608 1.729 5.407 2.607a.5.5 0 0 1-.22.95zm-267.994-4.328a.499.499 0 0 1-.299-.901c1.6-1.192 3.246-2.371 4.892-3.505a.5.5 0 1 1 .567.823 163.628 163.628 0 0 0-4.861 3.484.5.5 0 0 1-.299.099zm257.16-.826a.497.497 0 0 1-.209-.046c-1.813-.84-3.63-1.67-5.452-2.489a.5.5 0 1 1 .41-.912c1.825.82 3.646 1.652 5.462 2.494a.5.5 0 0 1-.21.953zm-10.94-4.92a.499.499 0 0 1-.2-.041 476.31 476.31 0 0 0-5.509-2.36.5.5 0 0 1 .389-.922c1.844.777 3.684 1.565 5.519 2.365a.5.5 0 0 1-.2.959zm-236.338-1.065a.5.5 0 0 1-.27-.922 168.619 168.619 0 0 1 5.135-3.14.5.5 0 0 1 .507.862c-1.72 1.01-3.437 2.06-5.104 3.122a.499.499 0 0 1-.268.078zm225.28-3.59a.495.495 0 0 1-.188-.038 445.404 445.404 0 0 0-5.568-2.218.5.5 0 0 1 .364-.932c1.866.73 3.725 1.47 5.58 2.224a.5.5 0 0 1-.188.963zm-214.931-2.486a.5.5 0 0 1-.238-.94 173.164 173.164 0 0 1 5.344-2.765.5.5 0 1 1 .445.896 170.579 170.579 0 0 0-5.314 2.75.5.5 0 0 1-.237.06zm203.752-1.88a.495.495 0 0 1-.175-.031c-1.87-.701-3.747-1.388-5.628-2.062a.5.5 0 1 1 .337-.941c1.886.675 3.767 1.364 5.642 2.066a.5.5 0 0 1-.176.968zm-193.001-3.446a.5.5 0 0 1-.206-.956c1.81-.82 3.668-1.623 5.521-2.388a.5.5 0 1 1 .382.924c-1.844.761-3.69 1.56-5.491 2.375a.494.494 0 0 1-.206.045zm181.701-.598a.5.5 0 0 1-.161-.027 380.34 380.34 0 0 0-5.69-1.89.5.5 0 1 1 .308-.951c1.908.617 3.809 1.248 5.704 1.895a.5.5 0 0 1-.161.973zm-11.422-3.694a.501.501 0 0 1-.146-.022 316.464 316.464 0 0 0-5.747-1.692.5.5 0 1 1 .273-.962 317.7 317.7 0 0 1 5.766 1.698.5.5 0 0 1-.146.978zm-159.189-.285a.5.5 0 0 1-.175-.968 185.845 185.845 0 0 1 5.668-2.015.5.5 0 0 1 .32.947c-1.89.638-3.787 1.312-5.638 2.005a.497.497 0 0 1-.175.031zm147.645-2.995a.493.493 0 0 1-.128-.017 312.68 312.68 0 0 0-5.807-1.47.5.5 0 0 1 .236-.972c1.948.473 3.891.965 5.826 1.475a.5.5 0 0 1-.127.984zm-136.279-.84a.5.5 0 0 1-.144-.98 193.902 193.902 0 0 1 5.783-1.65.5.5 0 1 1 .26.966 192.979 192.979 0 0 0-5.754 1.641.497.497 0 0 1-.145.022zm124.618-1.993a.504.504 0 0 1-.109-.012 301.93 301.93 0 0 0-5.86-1.244.5.5 0 1 1 .198-.98c1.964.397 3.925.813 5.879 1.248a.5.5 0 0 1-.108.988zM366.566 182.9a.5.5 0 0 1-.115-.987c1.934-.457 3.91-.894 5.872-1.297a.499.499 0 1 1 .201.98c-1.953.401-3.919.835-5.842 1.29a.5.5 0 0 1-.116.014zm101.27-1.253a.494.494 0 0 1-.09-.008 297.364 297.364 0 0 0-5.904-1.009.5.5 0 1 1 .158-.987c1.979.317 3.954.655 5.925 1.012a.5.5 0 0 1-.089.992zm-89.52-1.165a.5.5 0 0 1-.087-.992c1.961-.345 3.958-.667 5.935-.958a.499.499 0 1 1 .146.99c-1.968.289-3.956.61-5.908.953a.502.502 0 0 1-.087.007zm77.672-.735a.509.509 0 0 1-.07-.005 283.36 283.36 0 0 0-5.94-.765.5.5 0 0 1 .117-.993c1.99.235 3.977.49 5.962.767a.5.5 0 0 1-.069.996zm-65.805-1.013a.5.5 0 0 1-.06-.997c1.969-.235 3.98-.448 5.979-.634a.5.5 0 1 1 .093.996c-1.991.185-3.993.397-5.952.631a.564.564 0 0 1-.06.004zm53.889-.395c-.016 0-.033 0-.05-.002a275.05 275.05 0 0 0-5.966-.512.5.5 0 0 1 .074-.997c1.998.15 3.994.32 5.99.513a.5.5 0 0 1-.048.998zm-41.945-.715a.5.5 0 0 1-.033-.999 240.59 240.59 0 0 1 6.002-.326.492.492 0 0 1 .52.479.5.5 0 0 1-.478.52 240.857 240.857 0 0 0-6.011.326zm29.98-.179h-.028a263.645 263.645 0 0 0-5.982-.246.5.5 0 0 1-.486-.515.519.519 0 0 1 .515-.485c1.99.06 4.01.142 6.006.247a.5.5 0 0 1-.026 1zm-17.994-.323a.5.5 0 0 1-.009-1c2.002-.034 4.005-.045 6.012-.032a.5.5 0 0 1-.003 1h-.004a252.197 252.197 0 0 0-5.987.032h-.009z" class="color9bb2e1 svgShape"/><path fill="#c2d1f2" d="M818.64 390.51a.5.5 0 0 1-.5-.5v-58.99a.5.5 0 1 1 1 0v58.99a.5.5 0 0 1-.5.5zM818.64 516.806a.5.5 0 0 1-.5-.5v-117.97a.5.5 0 1 1 1 0v117.97a.5.5 0 0 1-.5.5zM806.108 629.105h-7.413a.5.5 0 1 1 0-1h7.413c6.634 0 12.033-6.27 12.033-13.977v-84.626a.5.5 0 1 1 1 0v84.626c0 8.258-5.847 14.977-13.033 14.977zM666.356 682.97H652.41a.5.5 0 1 1 0-1h13.438c-.24-9.13-7.004-16.475-15.284-16.475h-9.887a.5.5 0 0 1-.5-.5v-24.972a.5.5 0 1 1 1 0v24.472h9.387c8.982 0 16.29 8.064 16.29 17.975a.5.5 0 0 1-.5.5z" class="colorc2d1f2 svgShape"/><path fill="#0039b2" d="M549.728 617.777h78.51v50.15h-78.51z" class="color0039b2 svgShape"/><path d="M628.248 619.697v50.15h-5.02v-1.92h-73.5v-6.82h73.5v-18.18c0-5.73-4.65-10.37-10.38-10.37h-63.11v-12.86h78.51z" opacity=".1" fill="#000000" class="color000 svgShape"/><path fill="#0039b2" d="M806.73 309.28v304.35c0 8.27-6.71 14.98-14.99 14.98H386.23c-3.41 0-6.55-1.14-9.07-3.06-3.59-2.74-5.91-7.06-5.91-11.92V309.28c0-8.28 6.71-14.991 14.98-14.991h405.51c8.28 0 14.99 6.71 14.99 14.99z" class="color0039b2 svgShape"/><path fill="#ffffff" d="M386.228 597.521c-6.054 0-10.98-4.925-10.98-10.98V309.277c0-6.06 4.926-10.99 10.98-10.99h405.51c6.06 0 10.99 4.93 10.99 10.99v277.264c0 6.055-4.93 10.98-10.99 10.98h-405.51z" class="colorfff svgShape"/><path fill="#0039b2" d="M653.917 683.035H524.06c0-4.826 1.762-9.197 4.624-12.35 2.85-3.168 6.8-5.118 11.161-5.118h98.285c8.712 0 15.786 7.816 15.786 17.468z" class="color0039b2 svgShape"/><circle cx="588.983" cy="613.287" r="5.479" fill="#ffffff" class="colorfff svgShape"/><path d="M787.638 294.289v287.09c0 2.614-2.132 4.736-4.747 4.736H406.787c-2.615 0-4.737-2.122-4.737-4.465V294.289h385.588z" opacity=".08" fill="#000000" class="color000 svgShape"/><path fill="#0039b2" d="M780.686 231.336v343.008a4.715 4.715 0 0 1-4.718 4.71H402c-2.603 0-4.71-2.108-4.71-4.442v-343c0-2.87 2.107-4.977 4.71-4.977h373.968c2.603 0 4.718 2.107 4.718 4.701z" class="color0039b2 svgShape"/><path fill="#ffffff" d="M402.17 575.64c-.754 0-1.298-.614-1.298-1.028V231.609c0-.924.534-1.569 1.298-1.569h373.976a1.3 1.3 0 0 1 1.298 1.299v343.003a1.3 1.3 0 0 1-1.297 1.298H402.169z" class="colorfff svgShape"/><path d="M769.644 284.53v177.54c0 3.61-2.93 6.54-6.54 6.54h-72.32c-3.61 0-6.54-2.93-6.54-6.54V284.53c0-3.61 2.93-6.54 6.54-6.54h72.32c3.61 0 6.54 2.93 6.54 6.54z" opacity=".07" fill="#000000" class="color000 svgShape"/><path d="M668.915 380.53v80.605a3.9 3.9 0 0 1-3.891 3.9H553.052a3.902 3.902 0 0 1-3.899-3.9V380.53c0-2.151 1.748-3.9 3.9-3.9h111.97a3.9 3.9 0 0 1 3.892 3.9z" opacity=".05" fill="#000000" class="color000 svgShape"/><path fill="#719bff" d="M777.444 252.505v-21.166a1.3 1.3 0 0 0-1.298-1.299H402.17c-.764 0-1.298.646-1.298 1.568v20.897h376.572z" class="color719bff svgShape"/><path fill="#ffffff" d="M745.848 243.595a3.55 3.55 0 0 1-4.836 1.297 3.536 3.536 0 0 1-1.296-4.836 3.532 3.532 0 0 1 4.835-1.296 3.547 3.547 0 0 1 1.297 4.835zM756.394 243.595a3.55 3.55 0 0 1-4.836 1.297 3.536 3.536 0 0 1-1.296-4.836 3.532 3.532 0 0 1 4.836-1.296 3.547 3.547 0 0 1 1.296 4.835zM766.94 243.595a3.55 3.55 0 0 1-4.836 1.297 3.536 3.536 0 0 1-1.296-4.836 3.532 3.532 0 0 1 4.836-1.296 3.547 3.547 0 0 1 1.296 4.835z" class="colorfff svgShape"/><path d="M531.98 282.014v273.538a3.726 3.726 0 0 1-3.727 3.726H419.575a3.726 3.726 0 0 1-3.726-3.726V282.024a3.736 3.736 0 0 1 3.736-3.736h108.668a3.726 3.726 0 0 1 3.726 3.726z" opacity=".06" fill="#000000" class="color000 svgShape"/><path fill="#d7e7ff" d="M528.83 279.035v273.538a3.726 3.726 0 0 1-3.726 3.726H416.426a3.726 3.726 0 0 1-3.726-3.726V279.045a3.736 3.736 0 0 1 3.736-3.736h108.668a3.726 3.726 0 0 1 3.726 3.726z" class="colord7e7ff svgShape"/><path d="M518.34 303.29v65.507c0 2.42-1.971 4.39-4.391 4.39h-81.006a4.398 4.398 0 0 1-4.39-4.39v-65.508a4.4 4.4 0 0 1 4.39-4.4h81.006a4.4 4.4 0 0 1 4.39 4.4z" opacity=".1" fill="#000000" class="color000 svgShape"/><path fill="#ff5252" d="M515.659 300.651v65.507c0 2.42-1.971 4.391-4.39 4.391h-81.006a4.398 4.398 0 0 1-4.391-4.39V300.65a4.4 4.4 0 0 1 4.39-4.4h81.006a4.4 4.4 0 0 1 4.39 4.4z" class="colorff5252 svgShape"/><g opacity=".15" fill="#000000" class="color000 svgShape"><circle cx="471.592" cy="325.442" r="9.552" fill="#000000" class="color000 svgShape"/><path d="M492.79 357.638c-.858-10.995-10-19.672-21.221-19.692-11.22-.02-20.394 8.622-21.293 19.615l42.515.077z" fill="#000000" class="color000 svgShape"/></g><circle cx="469.942" cy="323.973" r="9.552" fill="#ffffff" class="colorfff svgShape"/><path fill="#ffffff" d="M491.141 356.17c-.859-10.996-10-19.673-21.221-19.693-11.22-.02-20.394 8.622-21.294 19.615l42.515.077z" class="colorfff svgShape"/><path d="M447.148 393.598v19.11c0 1.46-1.19 2.65-2.65 2.65h-20.435c-1.46 0-2.65-1.19-2.65-2.65v-19.11c0-1.46 1.19-2.65 2.65-2.65h20.435c1.46 0 2.65 1.19 2.65 2.65zM452.213 394.697h70.586v3.574h-70.586zM452.213 401.365h70.586v3.574h-70.586zM452.213 408.034h26.295v3.575h-26.295z" opacity=".08" fill="#000000" class="color000 svgShape"/><path fill="#ffffff" d="M445.808 392.512v19.11c0 1.46-1.19 2.65-2.65 2.65h-20.435c-1.46 0-2.65-1.19-2.65-2.65v-19.11c0-1.46 1.19-2.65 2.65-2.65h20.435c1.46 0 2.65 1.19 2.65 2.65zM450.872 393.612h70.586v3.574h-70.586zM450.872 400.28h70.586v3.574h-70.586zM450.872 406.949h26.295v3.575h-26.295z" class="colorfff svgShape"/><path d="M447.148 427.427v19.11c0 1.46-1.19 2.65-2.65 2.65h-20.435c-1.46 0-2.65-1.19-2.65-2.65v-19.11c0-1.46 1.19-2.65 2.65-2.65h20.435c1.46 0 2.65 1.19 2.65 2.65zM452.213 428.526h70.586v3.574h-70.586zM452.213 435.195h70.586v3.574h-70.586zM452.213 441.864h26.295v3.575h-26.295z" opacity=".08" fill="#000000" class="color000 svgShape"/><path fill="#ffffff" d="M445.808 426.342v19.11c0 1.46-1.19 2.65-2.65 2.65h-20.435c-1.46 0-2.65-1.19-2.65-2.65v-19.11c0-1.46 1.19-2.65 2.65-2.65h20.435c1.46 0 2.65 1.19 2.65 2.65zM450.872 427.441h70.586v3.574h-70.586zM450.872 434.11h70.586v3.574h-70.586zM450.872 440.779h26.295v3.575h-26.295z" class="colorfff svgShape"/><path d="M447.148 461.257v19.11c0 1.46-1.19 2.65-2.65 2.65h-20.435c-1.46 0-2.65-1.19-2.65-2.65v-19.11c0-1.46 1.19-2.65 2.65-2.65h20.435c1.46 0 2.65 1.19 2.65 2.65zM452.213 462.356h70.586v3.574h-70.586zM452.213 469.025h70.586v3.574h-70.586zM452.213 475.694h26.295v3.575h-26.295z" opacity=".08" fill="#000000" class="color000 svgShape"/><path fill="#ffffff" d="M445.808 460.172v19.11c0 1.46-1.19 2.65-2.65 2.65h-20.435c-1.46 0-2.65-1.19-2.65-2.65v-19.11c0-1.46 1.19-2.65 2.65-2.65h20.435c1.46 0 2.65 1.19 2.65 2.65zM450.872 461.271h70.586v3.574h-70.586zM450.872 467.94h70.586v3.574h-70.586zM450.872 474.609h26.295v3.575h-26.295z" class="colorfff svgShape"/><path fill="#719bff" d="M516.808 545.697h-92.085a2.788 2.788 0 0 1-2.788-2.788v-45.403a2.788 2.788 0 0 1 2.788-2.788h92.085a2.788 2.788 0 0 1 2.788 2.788v45.403a2.788 2.788 0 0 1-2.788 2.788z" class="color719bff svgShape"/><path d="M447.266 504.023h46.468v2.561h-46.468zM429.947 504.023h7.447v2.561h-7.447zM499.266 504.023h14.041v2.561h-14.041zM429.947 511.938h34.766v2.561h-34.766zM481.223 511.938h32.084v2.561h-32.084zM429.947 519.853h15.361v2.561h-15.361zM452.883 519.853h37.362v2.561h-37.362zM497.223 519.853h16.084v2.561h-16.084zM429.947 527.768h83.36v2.561h-83.36zM429.947 535.683H446.5v2.561h-16.553zM453.819 535.683h44.851v2.561h-44.851zM505.394 535.683h7.913v2.561h-7.913z" opacity=".15" fill="#000000" class="color000 svgShape"/><path fill="#ffffff" d="M446.404 503.098h46.468v2.561h-46.468zM429.085 503.098h7.447v2.561h-7.447zM498.404 503.098h14.041v2.561h-14.041zM429.085 511.013h34.766v2.561h-34.766zM480.362 511.013h32.084v2.561h-32.084zM429.085 518.927h15.361v2.561h-15.361zM452.021 518.927h37.362v2.561h-37.362zM496.362 518.927h16.084v2.561h-16.084zM429.085 526.842h83.36v2.561h-83.36zM429.085 534.757h16.553v2.561h-16.553zM452.957 534.757h44.851v2.561h-44.851zM504.532 534.757h7.913v2.561h-7.913z" class="colorfff svgShape"/><path d="M666.745 288.352v69.22a4.904 4.904 0 0 1-4.9 4.908H552.007c-2.709 0-4.9-2.2-4.9-4.908v-69.22a4.887 4.887 0 0 1 4.892-4.891h109.854c2.7 0 4.892 2.182 4.892 4.891z" opacity=".1" fill="#000000" class="color000 svgShape"/><path fill="#ffc837" d="M664.903 286.202v69.22a4.904 4.904 0 0 1-4.9 4.908H550.165c-2.709 0-4.9-2.2-4.9-4.909v-69.219a4.887 4.887 0 0 1 4.892-4.892H660.01c2.7 0 4.892 2.183 4.892 4.892z" class="colorffc837 svgShape"/><path fill="#ffffff" d="M647.4 331.336v.009l-.045.358v19.173H563.63V320.62l.073-.211c.23-.046.46.091.524.32.606 2.04 1.285 4.353 2.8 5.997 1.378 1.488 3.866 2.378 5.638 1.276 1.166-.725 1.773-2.057 2.415-3.47.717-1.58 1.46-3.215 3.067-3.995 2.057-.992 4.518.037 5.905 1.57 1.414 1.57 2.066 3.655 2.644 5.5l4.417 14.105c.294.936.9 2.02 1.607 2.35a.888.888 0 0 0 .762.028c.698-.285.872-1.304.955-2.167l4.205-45.315c.276-3.012 1.396-4.757 3.15-4.931 1.478-.147 2.69 1.019 3.177 2.158.487 1.13.505 2.35.523 3.535v.12a84.628 84.628 0 0 0 4.252 25.343c.294.881.606 1.726 1.184 2.295.515.505 1.405.78 2.002.377.248-.166.45-.45.652-.753.257-.358.533-.772.973-1.029.974-.596 2.158-.192 2.856.432.716.634 1.093 1.506 1.432 2.277l5.785 13.186 5.244-15.132c.349-1.02.78-2.067 1.753-2.562.193-.101.404-.11.625-.046.992.33 2.24 2.773 4.187 6.721 1.359 2.755 3.416 6.924 4.251 7.061 1.947.313 3.866-1.138 5.877-4.444a.46.46 0 0 1 .634-.147c.11.065.174.156.202.267z" class="colorfff svgShape"/><path d="M647.355 331.703c-.827 1.34-3.324 5.445-6.813 4.866-1.24-.21-2.682-3.011-4.922-7.566-1.203-2.415-3.003-6.079-3.664-6.253-.588.33-.91 1.157-1.221 2.039l-5.62 16.243a.47.47 0 0 1-.422.303c-.147 0-.359-.1-.432-.275L618 326.8c-.294-.68-.634-1.46-1.194-1.966-.468-.413-1.221-.67-1.772-.33-.267.165-.478.459-.689.771-.248.358-.505.726-.9.992-1.019.689-2.387.266-3.15-.487-.734-.716-1.092-1.662-1.422-2.663a85.48 85.48 0 0 1-4.298-25.61v-.128c-.018-1.093-.037-2.222-.45-3.177-.376-.881-1.276-1.717-2.24-1.616-1.708.174-2.195 2.644-2.324 4.104l-4.205 45.325c-.11 1.11-.376 2.46-1.524 2.929-.23.092-.469.138-.707.138-.267 0-.533-.065-.8-.184-1.018-.478-1.744-1.818-2.084-2.91l-4.416-14.114c-.551-1.745-1.176-3.728-2.461-5.151-1.148-1.277-3.168-2.158-4.812-1.36-1.304.634-1.947 2.048-2.635 3.545-.67 1.478-1.36 3.003-2.764 3.875-2.259 1.405-5.188.303-6.795-1.433-1.414-1.533-2.149-3.526-2.727-5.408-.1-.321-.193-.643-.285-.955a.464.464 0 0 1 .313-.57c.018 0 .027-.008.045-.008.23-.046.46.091.524.32.606 2.04 1.285 4.353 2.8 5.997 1.378 1.488 3.866 2.378 5.638 1.276 1.166-.725 1.773-2.057 2.415-3.47.717-1.58 1.46-3.215 3.067-3.995 2.057-.992 4.518.037 5.905 1.57 1.414 1.57 2.066 3.655 2.644 5.5l4.417 14.105c.294.936.9 2.02 1.607 2.35a.888.888 0 0 0 .762.028c.698-.285.872-1.304.955-2.167l4.205-45.315c.276-3.012 1.396-4.757 3.15-4.931 1.478-.147 2.69 1.019 3.177 2.158.487 1.13.505 2.35.523 3.535v.12a84.628 84.628 0 0 0 4.252 25.343c.294.881.606 1.726 1.184 2.295.515.505 1.405.78 2.002.377.248-.166.45-.45.652-.753.257-.358.533-.772.973-1.029.974-.596 2.158-.192 2.856.432.716.634 1.093 1.506 1.432 2.277l5.785 13.186 5.244-15.132c.349-1.02.78-2.067 1.753-2.562.193-.101.404-.11.625-.046.992.33 2.24 2.773 4.187 6.721 1.359 2.755 3.416 6.924 4.251 7.061 1.947.313 3.866-1.138 5.877-4.444a.46.46 0 0 1 .634-.147c.11.065.174.156.202.267v.009a.447.447 0 0 1-.046.358z" fill="#000000" class="color000 svgShape"/><circle cx="646.679" cy="331.653" r="2.413" fill="#000000" class="color000 svgShape"/><circle cx="646.679" cy="331.653" r="1.358" fill="#ffffff" class="colorfff svgShape"/><circle cx="563.834" cy="320.816" r="2.413" fill="#000000" class="color000 svgShape"/><circle cx="563.834" cy="320.816" r="1.358" fill="#ffffff" class="colorfff svgShape"/><path d="M756.865 497.405v55.377c0 3.578-2.918 6.496-6.514 6.496H560.25c-3.578 0-6.497-2.918-6.497-6.496v-55.17c0-3.716 3.005-6.739 6.723-6.739h189.859c3.596 0 6.531 2.936 6.531 6.532z" opacity=".08" fill="#000000" class="color000 svgShape"/><path fill="#1258ff" d="M754.173 493.307v55.377c0 3.578-2.919 6.496-6.514 6.496H557.556c-3.578 0-6.496-2.918-6.496-6.496v-55.17c0-3.716 3.005-6.739 6.722-6.739h189.86c3.595 0 6.53 2.936 6.53 6.532z" class="color1258ff svgShape"/><path fill="#0a48d8" d="M551.06 520.092h203.113v1.772H551.06z" class="color0a48d8 svgShape"/><path d="M740.519 517.312c-.21.303-.395.63-.596.943a3.953 3.953 0 0 0-4.785 3.854c0 1.015.393 1.931 1.022 2.632-1.728 2.99-3.593 5.64-6.428 7.127-5.229 2.745-11.743.209-15.72-2.814-2.919-2.206-5.35-4.933-7.904-7.8-1.546-1.72-3.127-3.508-4.812-5.158-2.69-2.608-6.422-5.48-10.747-6.823a3.953 3.953 0 0 0-3.593-2.314 3.949 3.949 0 0 0-3.224 1.673c-7.645.998-12.85 7.544-17.455 13.318l-.99 1.233c-2.597 3.233-7.036 7.84-12.074 9.321a3.95 3.95 0 0 0-3.569-2.27 3.943 3.943 0 0 0-3.4 1.962c-3.855-1.614-6.28-5.402-8.836-9.43-1.442-2.31-2.953-4.69-4.777-6.705-2.581-2.867-6.042-4.94-9.936-6.067a3.95 3.95 0 0 0-3.84-3.035c-1.51 0-2.806.854-3.473 2.092-6.056.104-11.718 2.441-15.599 6.471-1.963 2.032-3.491 4.395-4.968 6.671-1.007 1.528-2.032 3.126-3.179 4.568-1.253 1.608-4.337 4.981-8.246 5.68a3.944 3.944 0 0 0-3.939-3.765 3.948 3.948 0 0 0-3.204 1.648c-2.013-1.64-3.756-3.973-5.542-6.412-1.094-1.476-2.224-3.005-3.422-4.377-3.821-4.343-9.206-7.295-15.234-8.39v2.71c5.246 1.025 9.919 3.648 13.254 7.435 1.111 1.268 2.206 2.761 3.265 4.185 2.091 2.862 4.242 5.77 6.98 7.661.254 1.94 1.894 3.441 3.903 3.441a3.93 3.93 0 0 0 2.974-1.371c3.94-.182 7.985-2.586 11.313-6.812 1.199-1.528 2.258-3.179 3.3-4.76 1.477-2.275 2.867-4.43 4.656-6.287 3.287-3.416 8.089-5.402 13.288-5.637a3.956 3.956 0 0 0 3.873 3.15 3.943 3.943 0 0 0 3.536-2.215c3.247 1.015 6.118 2.79 8.277 5.188 1.667 1.858 3.11 4.134 4.499 6.34 2.762 4.386 5.643 8.874 10.59 10.688a3.949 3.949 0 0 0 3.887 3.274 3.945 3.945 0 0 0 3.812-2.954c5.932-1.545 10.974-6.704 13.899-10.33l.99-1.252c4.269-5.344 8.66-10.872 14.708-12.167.261 1.933 1.899 3.427 3.903 3.427 1.757 0 3.228-1.151 3.745-2.735 3.453 1.299 6.492 3.693 8.737 5.882 1.632 1.581 3.178 3.318 4.69 5.003 2.536 2.849 5.159 5.784 8.285 8.164 3.162 2.397 7.765 4.517 12.385 4.517 2.085 0 4.187-.434 6.167-1.477 3.461-1.822 5.63-4.934 7.527-8.209.198.03.396.06.602.06a3.955 3.955 0 0 0 3.957-3.955c0-.933-.34-1.78-.884-2.455.176-.274.34-.57.523-.832 2.9-4.15 7.4-7.416 12.472-9.101v-2.762c-6.01 1.772-11.204 5.437-14.643 10.353z" opacity=".1" fill="#000000" class="color000 svgShape"/><path fill="#ffffff" d="M754.173 505.97v2.762c-5.072 1.685-9.571 4.95-12.472 9.101-1.06 1.512-1.998 3.249-2.918 4.916-2.241 4.048-4.551 8.234-8.807 10.475-1.98 1.042-4.082 1.477-6.167 1.477-4.62 0-9.223-2.12-12.385-4.517-3.127-2.38-5.75-5.315-8.286-8.164-1.51-1.685-3.057-3.422-4.69-5.003-3.56-3.474-9.12-7.469-15.164-6.774-6.688.764-11.378 6.67-15.929 12.367l-.99 1.251c-4.047 5.02-12.142 13.01-21.053 10.231-5.298-1.667-8.268-6.357-11.134-10.908-1.39-2.206-2.832-4.482-4.5-6.34-3.439-3.822-8.685-6.063-14.382-6.167-5.698-.07-11.03 1.98-14.591 5.68-1.79 1.859-3.18 4.013-4.656 6.288-1.042 1.581-2.102 3.231-3.3 4.76-3.735 4.742-8.373 7.209-12.75 6.792-5.68-.539-9.12-5.194-12.42-9.71-1.06-1.425-2.154-2.919-3.265-4.187-3.336-3.786-8.008-6.41-13.254-7.434v-2.71c6.027 1.094 11.412 4.047 15.234 8.39 1.198 1.372 2.327 2.9 3.422 4.377 3.091 4.221 6.027 8.2 10.526 8.633 4.916.47 8.929-3.89 10.405-5.784 1.147-1.442 2.171-3.04 3.179-4.568 1.476-2.276 3.005-4.639 4.968-6.67 4.082-4.24 10.127-6.636 16.536-6.497 6.445.104 12.386 2.675 16.312 7.035 1.823 2.015 3.335 4.395 4.776 6.705 2.745 4.325 5.316 8.407 9.693 9.78 7.4 2.327 14.574-4.864 18.187-9.363l.99-1.234c4.655-5.836 9.919-12.472 17.7-13.358 7.088-.799 13.341 3.648 17.319 7.505 1.685 1.65 3.266 3.439 4.812 5.159 2.553 2.865 4.985 5.593 7.903 7.799 3.978 3.022 10.492 5.558 15.72 2.814 3.544-1.859 5.576-5.524 7.713-9.415.955-1.72 1.945-3.509 3.074-5.142 3.44-4.916 8.634-8.58 14.644-10.352z" class="colorfff svgShape"/><path fill="#ffc837" d="M742.061 521.12a3.955 3.955 0 0 1-3.956 3.956 3.955 3.955 0 0 1-3.956-3.957 3.953 3.953 0 0 1 3.956-3.944 3.953 3.953 0 0 1 3.956 3.944zM689.923 509.914a3.955 3.955 0 0 1-3.956 3.956 3.955 3.955 0 0 1-3.956-3.956 3.953 3.953 0 0 1 3.956-3.944 3.953 3.953 0 0 1 3.956 3.944zM652.611 533.19a3.955 3.955 0 0 1-3.956 3.955 3.955 3.955 0 0 1-3.956-3.956 3.953 3.953 0 0 1 3.956-3.944 3.953 3.953 0 0 1 3.956 3.944zM621.822 509.914a3.955 3.955 0 0 1-3.957 3.956 3.955 3.955 0 0 1-3.956-3.956 3.953 3.953 0 0 1 3.956-3.944 3.953 3.953 0 0 1 3.957 3.944zM582.419 531.631a3.955 3.955 0 0 1-3.957 3.957 3.955 3.955 0 0 1-3.956-3.957 3.953 3.953 0 0 1 3.956-3.944 3.953 3.953 0 0 1 3.957 3.944z" class="colorffc837 svgShape"/><path fill="#e4f0fd" d="M666.745 378.02v80.605a3.9 3.9 0 0 1-3.891 3.899H550.882a3.902 3.902 0 0 1-3.9-3.9V378.02c0-2.152 1.749-3.9 3.9-3.9h111.972a3.9 3.9 0 0 1 3.89 3.9z" class="colore4f0fd svgShape"/><path d="M572.158 389.37V449a4.142 4.142 0 0 1-4.132 4.133 4.134 4.134 0 0 1-4.133-4.133v-59.63a4.134 4.134 0 0 1 7.054-2.921 4.155 4.155 0 0 1 1.211 2.921zM591.578 389.37V449a4.143 4.143 0 0 1-4.133 4.133 4.134 4.134 0 0 1-4.133-4.133v-59.63a4.134 4.134 0 0 1 7.054-2.921 4.155 4.155 0 0 1 1.212 2.921zM610.997 387.644V449a4.143 4.143 0 0 1-4.133 4.133A4.134 4.134 0 0 1 602.73 449v-61.356a4.134 4.134 0 0 1 4.133-4.133c1.13 0 2.167.457 2.92 1.211a4.155 4.155 0 0 1 1.213 2.922zM630.416 389.37V449a4.142 4.142 0 0 1-4.133 4.133A4.134 4.134 0 0 1 622.15 449v-59.63a4.134 4.134 0 0 1 7.054-2.921 4.155 4.155 0 0 1 1.212 2.921zM649.835 389.37V449a4.142 4.142 0 0 1-4.133 4.133 4.134 4.134 0 0 1-4.133-4.133v-59.63a4.134 4.134 0 0 1 7.054-2.921 4.155 4.155 0 0 1 1.212 2.921z" opacity=".1" fill="#000000" class="color000 svgShape"/><path fill="#ed92f7" d="M572.158 389.37V449a4.142 4.142 0 0 1-4.132 4.133 4.134 4.134 0 0 1-4.133-4.133v-59.63a4.134 4.134 0 0 1 7.054-2.921 4.155 4.155 0 0 1 1.211 2.921z" class="colored92f7 svgShape"/><path fill="#71eaa2" d="M591.578 389.37V449a4.143 4.143 0 0 1-4.133 4.133 4.134 4.134 0 0 1-4.133-4.133v-59.63a4.134 4.134 0 0 1 7.054-2.921 4.155 4.155 0 0 1 1.212 2.921z" class="color71eaa2 svgShape"/><path fill="#5d91f9" d="M610.997 387.644V449a4.143 4.143 0 0 1-4.133 4.133A4.134 4.134 0 0 1 602.73 449v-61.356a4.134 4.134 0 0 1 4.133-4.133c1.13 0 2.167.457 2.92 1.211a4.155 4.155 0 0 1 1.213 2.922z" class="color5d91f9 svgShape"/><path fill="#f9d27a" d="M630.416 389.37V449a4.142 4.142 0 0 1-4.133 4.133A4.134 4.134 0 0 1 622.15 449v-59.63a4.134 4.134 0 0 1 7.054-2.921 4.155 4.155 0 0 1 1.212 2.921z" class="colorf9d27a svgShape"/><path fill="#f77777" d="M649.835 389.37V449a4.142 4.142 0 0 1-4.133 4.133 4.134 4.134 0 0 1-4.133-4.133v-59.63a4.134 4.134 0 0 1 7.054-2.921 4.155 4.155 0 0 1 1.212 2.921z" class="colorf77777 svgShape"/><path fill="#d250dc" d="M572.158 408.037V449a4.142 4.142 0 0 1-4.132 4.133 4.134 4.134 0 0 1-4.133-4.133v-40.963a4.134 4.134 0 0 1 4.133-4.133c1.13 0 2.167.457 2.92 1.211a4.155 4.155 0 0 1 1.212 2.922z" class="colord250dc svgShape"/><path fill="#3cd278" d="M591.578 429.862V449a4.143 4.143 0 0 1-4.133 4.133 4.134 4.134 0 0 1-4.133-4.133v-19.138a4.134 4.134 0 0 1 7.054-2.922 4.155 4.155 0 0 1 1.212 2.922z" class="color3cd278 svgShape"/><path fill="#1258ff" d="M610.997 401.63V449a4.143 4.143 0 0 1-4.133 4.133A4.134 4.134 0 0 1 602.73 449v-47.37a4.134 4.134 0 0 1 4.133-4.134c1.13 0 2.167.458 2.92 1.212a4.155 4.155 0 0 1 1.213 2.921z" class="color1258ff svgShape"/><path fill="#f9bb32" d="M630.416 416.457V449a4.142 4.142 0 0 1-4.133 4.133A4.134 4.134 0 0 1 622.15 449v-32.543a4.134 4.134 0 0 1 7.054-2.921 4.155 4.155 0 0 1 1.212 2.921z" class="colorf9bb32 svgShape"/><path fill="#f03232" d="M649.835 403.028V449a4.142 4.142 0 0 1-4.133 4.133 4.134 4.134 0 0 1-4.133-4.133v-45.972a4.134 4.134 0 0 1 7.054-2.921 4.155 4.155 0 0 1 1.212 2.921z" class="colorf03232 svgShape"/><path fill="#719bff" d="M767.41 281.85v177.54c0 3.61-2.93 6.54-6.54 6.54h-72.32c-3.61 0-6.54-2.93-6.54-6.54V281.85c0-3.61 2.93-6.54 6.54-6.54h72.32c3.61 0 6.54 2.93 6.54 6.54z" class="color719bff svgShape"/><path d="M759.409 431.865v3.83c0 .4-.32.73-.72.73h-66.61c-.4 0-.72-.33-.72-.73v-3.83c0-.4.32-.72.72-.72h66.61c.4 0 .72.32.72.72zM725.379 442.505v3.83c0 .4-.32.72-.72.72h-32.58c-.4 0-.72-.32-.72-.72v-3.83c0-.4.32-.72.72-.72h32.58c.4 0 .72.32.72.72zM759.409 410.595v3.82c0 .4-.32.73-.72.73h-66.61c-.4 0-.72-.33-.72-.73v-3.82c0-.4.32-.73.72-.73h66.61c.4 0 .72.33.72.73zM759.409 421.225v3.83c0 .4-.32.73-.72.73h-66.61c-.4 0-.72-.33-.72-.73v-3.83c0-.4.32-.72.72-.72h66.61c.4 0 .72.32.72.72zM710.784 383.021v15.27a1.75 1.75 0 01-1.753 1.753h-15.256a1.75 1.75 0 01-1.753-1.753v-15.27c0-.97.782-1.753 1.753-1.753h15.256c.97 0 1.753.782 1.753 1.753zM735.294 383.021v15.27a1.75 1.75 0 01-1.753 1.753h-15.255a1.75 1.75 0 01-1.753-1.753v-15.27c0-.97.782-1.753 1.753-1.753h15.255c.971 0 1.753.782 1.753 1.753zM759.805 383.021v15.27a1.75 1.75 0 01-1.753 1.753h-15.256a1.75 1.75 0 01-1.753-1.753v-15.27c0-.97.783-1.753 1.753-1.753h15.256c.97 0 1.753.782 1.753 1.753zM761.278 355.038v15.39c0 .92-.75 1.66-1.67 1.66h-67.4c-.92 0-1.66-.74-1.66-1.66v-15.39c0-.92.74-1.67 1.66-1.67h67.4c.92 0 1.67.75 1.67 1.67z" opacity=".1" fill="#000000" class="color000 svgShape"/><g opacity=".1" fill="#000000" class="color000 svgShape"><path d="M709.246 317.882v22.525a.95.95 0 0 1-.95.95h-4.668a.95.95 0 0 1-.95-.95v-22.525c0-.532.426-.958.95-.958h4.668c.524 0 .95.426.95.958zM728.567 319.835v20.572a.95.95 0 0 1-.95.95h-4.668a.95.95 0 0 1-.95-.95v-20.572c0-.533.426-.959.95-.959h4.668c.524 0 .95.426.95.959zM747.887 313.631v26.776a.95.95 0 0 1-.95.95h-4.667a.95.95 0 0 1-.95-.95v-26.776a.95.95 0 0 1 .95-.95h4.668a.95.95 0 0 1 .95.95zM699.83 321.566v18.841c0 .524-.426.95-.959.95h-4.66a.953.953 0 0 1-.958-.95v-18.841c0-.533.426-.959.959-.959h4.66c.532 0 .958.426.958.959zM757.792 306.824v33.583c0 .524-.426.95-.959.95h-4.659a.958.958 0 0 1-.958-.95v-33.583a.96.96 0 0 1 .958-.958h4.66c.532 0 .958.426.958.958zM738.471 321.566v18.841c0 .524-.426.95-.958.95h-4.66a.958.958 0 0 1-.958-.95v-18.841a.96.96 0 0 1 .958-.959h4.66c.532 0 .958.426.958.959zM719.15 312.744v27.663c0 .524-.426.95-.958.95h-4.66a.953.953 0 0 1-.958-.95v-27.663c0-.533.426-.959.959-.959h4.659c.532 0 .958.426.958.959z" fill="#000000" class="color000 svgShape"/><path d="M690.921 318.657a.665.665 0 0 1-.665-.666c0-.506 0-.626 12.65-8.97a2807.149 2807.149 0 0 1 12.353-8.096c.2-.13.454-.143.666-.034l18.336 9.385 22.893-16.949a.665.665 0 0 1 .792 1.07l-23.225 17.194a.666.666 0 0 1-.699.057l-18.36-9.397c-9.328 6.074-23.132 15.16-24.196 16.123a.665.665 0 0 1-.545.283zm.665-.65zm0-.002zm0-.002zm0-.003v.002V318zm0-.002V318v-.002zm0-.002v.002-.002zm0-.002v.001-.001zm0-.003v.002-.002z" fill="#000000" class="color000 svgShape"/><circle cx="734.409" cy="311.018" r="1.973" fill="#000000" class="color000 svgShape"/><circle cx="715.622" cy="302.309" r="1.973" fill="#000000" class="color000 svgShape"/><circle cx="691.586" cy="317.753" r="1.973" fill="#000000" class="color000 svgShape"/><path d="m756.687 299.346-4.184-6.123c-.255-.373.153-.959.693-.995l7.245-.46c.422-.025.662.327.485.71l-3.06 6.583c-.23.49-.924.658-1.179.285z" fill="#000000" class="color000 svgShape"/></g><path fill="#f03232" d="M708.068 316.937v22.525a.95.95 0 0 1-.95.95h-4.668a.95.95 0 0 1-.95-.95v-22.525c0-.532.427-.958.95-.958h4.669c.523 0 .95.426.95.958zM727.39 318.89v20.572a.95.95 0 0 1-.95.95h-4.669a.95.95 0 0 1-.95-.95V318.89c0-.532.427-.959.95-.959h4.668c.524 0 .95.427.95.959zM746.71 312.686v26.776a.95.95 0 0 1-.95.95h-4.668a.95.95 0 0 1-.95-.95v-26.776a.95.95 0 0 1 .95-.95h4.668a.95.95 0 0 1 .95.95z" class="colorf03232 svgShape"/><path fill="#ffffff" d="M698.652 320.62v18.842c0 .524-.426.95-.959.95h-4.659a.953.953 0 0 1-.958-.95v-18.841c0-.533.426-.959.958-.959h4.66c.532 0 .958.426.958.959zM756.614 305.88v33.582c0 .524-.426.95-.958.95h-4.66a.958.958 0 0 1-.958-.95V305.88a.96.96 0 0 1 .958-.958h4.66c.532 0 .958.426.958.958zM737.294 320.62v18.842c0 .524-.426.95-.959.95h-4.66a.958.958 0 0 1-.958-.95v-18.841a.96.96 0 0 1 .959-.959h4.659c.533 0 .959.426.959.959zM717.973 311.799v27.663c0 .524-.426.95-.959.95h-4.66a.953.953 0 0 1-.958-.95V311.8c0-.533.426-.959.959-.959h4.66c.532 0 .958.426.958.959z" class="colorfff svgShape"/><path d="M689.744 317.712a.665.665 0 0 1-.666-.665c0-.507 0-.627 12.65-8.971a2808.196 2808.196 0 0 1 12.354-8.095c.2-.13.454-.144.666-.035l18.336 9.385 22.893-16.949a.665.665 0 0 1 .791 1.07l-23.224 17.194a.666.666 0 0 1-.7.057l-18.36-9.397c-9.328 6.075-23.131 15.16-24.196 16.123a.665.665 0 0 1-.544.283zm.665-.65v.001zm0-.002zm0-.002zm0-.003v.002-.002zm0-.002v.002-.002zm0-.002v.002-.002zm0-.002v.002-.002zm0-.002v.001-.001z" fill="#000000" class="color000 svgShape"/><circle cx="733.232" cy="310.073" r="1.973" fill="#f03232" class="colorf03232 svgShape"/><circle cx="714.445" cy="301.364" r="1.973" fill="#f03232" class="colorf03232 svgShape"/><circle cx="690.409" cy="316.808" r="1.973" fill="#f03232" class="colorf03232 svgShape"/><path fill="#f03232" d="m755.51 298.401-4.185-6.122c-.255-.374.154-.96.694-.995l7.244-.46c.422-.026.662.326.486.71l-3.06 6.582c-.23.49-.924.659-1.18.285z" class="colorf03232 svgShape"/><path fill="#ffffff" d="M759.81 353.57v15.39c0 .92-.75 1.66-1.67 1.66h-67.4c-.92 0-1.66-.74-1.66-1.66v-15.39c0-.92.74-1.67 1.66-1.67h67.4c.92 0 1.67.75 1.67 1.67zM709.58 381.872v15.27a1.75 1.75 0 0 1-1.752 1.753h-15.256a1.75 1.75 0 0 1-1.753-1.753v-15.27c0-.97.782-1.753 1.753-1.753h15.256c.97 0 1.753.782 1.753 1.753zM734.091 381.872v15.27a1.75 1.75 0 0 1-1.753 1.753h-15.255a1.75 1.75 0 0 1-1.754-1.753v-15.27c0-.97.783-1.753 1.754-1.753h15.255c.971 0 1.753.782 1.753 1.753zM758.602 381.872v15.27a1.75 1.75 0 0 1-1.753 1.753h-15.256a1.75 1.75 0 0 1-1.753-1.753v-15.27c0-.97.782-1.753 1.753-1.753h15.256c.97 0 1.753.782 1.753 1.753zM758.6 431.1v3.83c0 .399-.32.73-.72.73h-66.61c-.4 0-.72-.331-.72-.73v-3.83c0-.4.32-.72.72-.72h66.61c.4 0 .72.32.72.72zM724.57 441.74v3.83c0 .4-.32.719-.72.719h-32.58c-.4 0-.72-.32-.72-.72v-3.83c0-.4.32-.72.72-.72h32.58c.4 0 .72.32.72.72zM758.6 409.829v3.82c0 .4-.32.73-.72.73h-66.61c-.4 0-.72-.33-.72-.73v-3.82c0-.4.32-.73.72-.73h66.61c.4 0 .72.33.72.73zM758.6 420.46v3.829c0 .4-.32.73-.72.73h-66.61c-.4 0-.72-.33-.72-.73v-3.83c0-.4.32-.72.72-.72h66.61c.4 0 .72.32.72.72z" class="colorfff svgShape"/><path fill="#ffc6b2" d="m916.078 520.98-2.083 6.719-26.342-15.874-3.864 9.708s24.508 34.455 35.1 32.377 12.364-21.469 12.364-21.469l-9.036-7.625-6.14-3.837z" class="colorffc6b2 svgShape"/><path fill="#ffc6b2" d="M887.697 511.877s-2.01-7.035-3.376-5.908-.477 3.446-.477 3.446-8.02-9.965-8.805-6.688c-.785 3.276 5.426 7.849 5.426 7.849s-4.675 4.163-4.3 6.927c.557 4.098 7.668 4.081 7.668 4.081l3.864-9.707z" class="colorffc6b2 svgShape"/><path fill="#ff784b" d="M924.838 508.46s-7.846 5.54-10.996 16.127c-1.13 1.338 10.395 11.065 11.525 9.727l7.333-8.204-7.862-17.65z" class="colorff784b svgShape"/><path d="M897.155 701.866h30.993v5.154h-30.993z" fill="#000000" class="color000 svgShape"/><path d="m913.874 688.607-16.719 13.26h30.993v-13.26z" fill="#000000" class="color000 svgShape"/><path fill="#ffffff" d="M912.522 702.118H897.15a.25.25 0 1 1 0-.5h15.37a.25.25 0 1 1 0 .5zM921.635 705.635c0 .507.05.952.16 1.385h.618c0-.025 0-.05-.012-.075a5.522 5.522 0 0 1-.148-1.31c0-1.31.432-2.583 1.223-3.584.05-.062.1-.123.161-.185a5.874 5.874 0 0 1 4.51-2.126v-.618c-2.013 0-3.954.952-5.165 2.558-.05.062-.087.124-.136.186a6.406 6.406 0 0 0-1.211 3.77z" class="colorfff svgShape"/><path d="M944.581 701.866h30.993v5.154h-30.993z" fill="#000000" class="color000 svgShape"/><path d="m961.3 688.607-16.719 13.26h30.993v-13.26z" fill="#000000" class="color000 svgShape"/><path fill="#ffffff" d="M959.948 702.118h-15.371a.25.25 0 1 1 0-.5h15.371a.25.25 0 1 1 0 .5zM969.061 705.635c0 .507.05.952.16 1.385h.619c0-.025 0-.05-.013-.075a5.522 5.522 0 0 1-.148-1.31c0-1.31.432-2.583 1.224-3.584.05-.062.099-.123.16-.185a5.874 5.874 0 0 1 4.511-2.126v-.618c-2.014 0-3.954.952-5.166 2.558-.05.062-.087.124-.136.186a6.406 6.406 0 0 0-1.21 3.77z" class="colorfff svgShape"/><path fill="#1258ff" d="M978.361 690.594c-3.184 4.903-25.717 2.63-27.182.3-.208-.335-.577-4.523-1.027-10.8-.069-.923-.138-1.892-.207-2.896-1.535-22.336-3.762-75.945-3.762-75.945s-6.726 53.424-11.053 75.576c-.184.923-.357 1.811-.53 2.665-1.281 6.346-2.285 10.569-2.758 10.845-5.745 3.427-20.675 1.79-23.629.312-.461-.231-.415-3 .012-7.51.058-.728.138-1.5.22-2.308 2.768-26.49 14.871-109.208 14.871-109.208s48.446-4.327 50.407.692" class="color1258ff svgShape"/><path fill="#ffffff" d="M926.083 682.182c.044.11-.925.685-3.116 1.103-1.861.29-3.765.3-5.629.03-2.193-.393-3.169-.957-3.125-1.07.052-.164 1.092.147 3.22.405 1.799.26 3.636.25 5.432-.03 2.127-.282 3.163-.604 3.218-.438zM972.177 680.99c.03.129-1.222.612-3.87 1.236-2.252.464-4.56.8-6.89.745-2.757-.144-4.025-.773-3.985-.875.044-.179 1.342.187 4 .202 2.255.054 4.513-.271 6.74-.731 2.643-.498 3.968-.735 4.005-.578zM973.292 588.777c-.036.055-.416-.096-1.085-.56-.662-.466-1.618-1.264-2.598-2.594-1.62-2.283-2.434-5.11-2.337-7.898.083-1.648.445-2.84.745-3.593.306-.755.55-1.085.608-1.06.077.033-.04.417-.227 1.182a15.231 15.231 0 0 0-.454 3.49c-.091 2.654.68 5.327 2.216 7.493a15.583 15.583 0 0 0 2.3 2.67c.576.538.877.803.832.87zM921.625 586.044c-.113-.152 1.109-.874 2.827-2.996 1.466-1.782 2.429-3.964 2.804-6.242.462-2.691.185-4.081.381-4.1.064-.01.202.321.304 1.021.103.697.173 1.77-.022 3.188-.392 2.39-1.404 4.684-2.946 6.559-.934 1.086-1.791 1.738-2.38 2.125-.595.382-.929.504-.968.445zM944.892 581.943c.065.033-.087.477-.444 1.34-.345.865-.938 2.14-1.474 3.905-.467 1.487-.714 3.044-.564 4.576a9.431 9.431 0 0 0 1.542 4.296c.482.769 1.046 1.33 1.502 1.898.457.558.76 1.13.871 1.619.224 1.005-.16 1.476-.196 1.432-.091-.023.115-.487-.187-1.316-.151-.412-.446-.872-.912-1.373-.454-.498-1.09-1.076-1.637-1.886a10.107 10.107 0 0 1-1.653-4.604c-.16-1.646.107-3.298.592-4.842.617-1.816 1.304-3.06 1.756-3.88.464-.817.738-1.198.804-1.165zM914.341 654.668c-.14-.025.588-4.885 2.262-14.679l4.402-24.86c1.789-9.763 2.773-14.579 2.918-14.553.145.026-.588 4.885-2.256 14.67l-4.402 24.86c-1.794 9.772-2.775 14.588-2.924 14.562zM971.257 654.791c-.144.002-.344-4.263-.545-12.891l-.36-21.929c-.083-8.621-.023-12.89.124-12.893s.343 4.263.548 12.882l.36 21.93c.08 8.629.023 12.899-.127 12.901z" class="colorfff svgShape"/><path fill="#ff784b" d="M919.401 572.96c-.418-15.483-.298-54.868 4.105-62.755 5.753-10.304 41.2-11.856 53.517 0 2.677 2.577.682 46.742-.656 62.558 0 5.128-56.966 5.325-56.966.197z" class="colorff784b svgShape"/><path fill="#ffc6b2" d="m962.435 532.577.286 6.48-25.213-9.422-1.497 10.148s30.36 23.705 42.82 18.805c6.582-2.59 4.342-26.617 4.342-26.617l-20.738.606z" class="colorffc6b2 svgShape"/><path fill="#ff784b" d="M972.18 506.782s-7.721-.54-9.816 9.047c-2.094 9.585-1.315 18.906-1.315 18.906-.022.666 23.803 2.96 24.33.783 0 0 .592-24.332-13.199-28.736z" class="colorff784b svgShape"/><path fill="#ffffff" d="M961.03 524.492c.155.019.096 1.164.06 3.46a42.068 42.068 0 0 0 .182 5.825c.03.354.062.885.087.857-.022.02.224.077.375.11l.46.094.717.127c.384.067.58.116.581.178.001.06-.194.125-.596.16-.2.017-.453.025-.756.012a7.835 7.835 0 0 1-.492-.036c-.178-.045-.334.029-.68-.192-.256-.23-.253-.509-.285-.67l-.08-.572a42.75 42.75 0 0 1-.185-5.92c.16-2.33.475-3.45.611-3.433zM969.13 507.194c.093.147-.856.71-2.545 1.992-1.457 1.05-2.474 2.558-3.106 4.241-.779 1.964-.867 3.053-1.045 3.031-.113.002-.29-1.14.416-3.27a11.35 11.35 0 0 1 1.323-2.512c.55-.784 1.253-1.46 2.006-2.026 1.85-1.244 2.89-1.558 2.952-1.456z" class="colorfff svgShape"/><path fill="#ffc6b2" d="M933.401 529.724c-.284-.17-1.871-1.526-.7-3.609 1.23-2.208 4.804 3.517 4.804 3.517-1.29 1.443-2.605 2.444-4.104.092z" class="colorffc6b2 svgShape"/><path fill="#0039b2" d="m906.94 518.167 9.363 25.46c.107.291.383.484.693.484h18.894l-9.905-26.937h-18.352a.738.738 0 0 0-.692.993z" class="color0039b2 svgShape"/><path fill="#073c9b" d="m925.985 517.174 9.905 26.937h1.704c.513 0 .87-.51.693-.993l-9.363-25.46a.738.738 0 0 0-.692-.484h-2.247z" class="color073c9b svgShape"/><path fill="#f0e6ff" d="M918.825 529.952c-.12-.02-.34.287-.375 1-.024.688.16 1.852 1.201 2.947.45.424 1.012.81 1.703.96.34.073.72.097 1.12-.017a1.72 1.72 0 0 0 1-.766c.425-.77.285-1.487.154-2.07a7.666 7.666 0 0 0-.633-1.665c-.709-1.216-1.55-1.881-2.134-2.22-.598-.335-.955-.369-1.021-.255-.075.124.141.38.545.842.396.464.99 1.155 1.487 2.22.43.824.802 2.044.516 2.495-.11.196-.357.28-.763.199-.384-.078-.76-.323-1.1-.641-.828-.718-1.15-1.568-1.325-2.116-.173-.564-.223-.893-.375-.913z" class="colorf0e6ff svgShape"/><path fill="#ffc6b2" d="m937.505 529.632-.04 11.254s-10.067 2.028-13.435-6.554c-3.29-8.365 9.844-4.495 10.516-4.301l2.959-.399zM956.268 492.172v10.14l-11.462 8.422-.88-12.27s-9.176.763-9.602-4.597c-.209-2.638-.019-7.036.072-9.956.018-.626.045-1.224.073-1.777 1.605.49 3.355.49 5.014.2 2.213-.39 4.298-1.27 6.375-2.114 1.306-.526 2.929-.997 3.99-.081.68.598.861 1.568.925 2.475.054.898.054 1.85.49 2.639.444.789 1.405 1.124 2.14.59 0 0 5.087-3.591 6.964 0 .127.244.208.498.28.725V486.622h.019c.725 3.22-4.398 5.55-4.398 5.55z" class="colorffc6b2 svgShape"/><path fill="#ffc6b2" d="M953.402 480.057v5.785c-.734.535-1.695.2-2.14-.59-.435-.788-.435-1.74-.49-2.638-.063-.907-.244-1.877-.924-2.475-1.061-.916-2.684-.445-3.99.081-2.077.844-4.162 1.723-6.375 2.113-1.66.29-3.41.29-5.014-.2.09-2.14.19-3.627.19-3.627s5.178-4.388 5.713-4.388c.544 0 8.75 2.602 9.14 2.747.39.136 3.89 3.192 3.89 3.192z" class="colorffc6b2 svgShape"/><path fill="#253066" d="M948.214 497.122c.033.055-.281.332-1.032.691-.647.279-1.32.492-2.009.642-.82.143-1.243.08-1.244.008-.003-.075.393-.14 1.174-.337.666-.145 1.32-.352 1.947-.622.751-.293 1.124-.454 1.164-.382zM956.607 489.276c-.054-.155.386-.313.841-.855.405-.407.443-1.154.057-1.472-.469-.438-.904-.27-.97-.407-.037-.055.016-.197.263-.304.237-.1.69-.135 1.144.2.752.68.594 1.817.004 2.436-.372.35-.732.457-.962.49-.236.03-.359-.018-.377-.088z" class="color253066 svgShape"/><path fill="#2a0054" d="M956.268 492.172s5.123-2.33 4.38-5.55v-.054a4.564 4.564 0 0 0-.281-.726c-1.877-3.59-6.965 0-6.965 0-.734.535-1.695.2-2.14-.59-.435-.788-.435-1.74-.49-2.638-.063-.907-.244-1.877-.924-2.475-1.061-.916-2.684-.445-3.99.081-2.077.844-8.168.206-10.368-.252-8.894-1.856-5.264-12.82.167-14.43 3.304-.98 6.772.178 10.215.326 14.787.634 16.733 8.558 17.342 11.388 2.186 10.164-3.961 16.193-6.946 14.92z" class="color2a0054 svgShape"/><path fill="#719bff" d="M969.356 315.935v74.87a4.064 4.064 0 0 1-4.065 4.065H850.847a4.07 4.07 0 0 1-4.072-4.064v-74.87a4.075 4.075 0 0 1 4.072-4.072H965.29a4.069 4.069 0 0 1 4.065 4.071z" class="color719bff svgShape"/><path fill="#ffffff" d="M956.17 339.406v43.502h-96.208v-28.19s7.816 11.957 20.535 12.104c12.705.16 9.646-18.838 22.966-24.356 13.334-5.518 15.632 17.008 29.113 18.691 13.48 1.684 23.594-21.75 23.594-21.75z" class="colorfff svgShape"/><path fill="#ffc837" d="M956.172 382.905h-96.21s9.085-26.782 15.827-28.697c6.737-1.914 14.114 17.851 21.765 16.303 7.651-1.549 11.754-26.234 19.765-28.782 8.017-2.549 9.023 24.136 15.308 25.41 6.28 1.28 11.017-11.2 16.394-11.29 5.371-.092 7.151 27.056 7.151 27.056z" opacity=".6" class="colorffc837 svgShape"/><path fill="#719bff" d="m1048.562 304.902 30.426-46.684-57.678 13.268a.05.05 0 0 0-.028.082l27.198 33.339a.05.05 0 0 0 .082-.005z" class="color719bff svgShape"/><path fill="#5388f2" d="m1078.988 258.218-41.07 33.736a.051.051 0 0 0-.006.006l-5.978 6.989a.05.05 0 0 1-.089-.03l-.997-15.594a.05.05 0 0 1 .028-.048l48.112-25.06z" class="color5388f2 svgShape"/><path fill="#5388f2" d="m1032.034 298.979 8.895-3.22a.05.05 0 0 0 .023-.08l-2.998-3.675a.05.05 0 0 0-.078 0l-5.898 6.894c-.034.04.007.098.056.08z" class="color5388f2 svgShape"/><circle cx="256.111" cy="271.801" r="37.726" fill="#ffc837" class="colorffc837 svgShape"/><path fill="#ffffff" d="M281.936 267.067a2.449 2.449 0 0 0-2.026-2.301l-2.25-.414c-.777-.15-1.461-.643-1.787-1.37-.1-.255-.235-.517-.361-.762a2.46 2.46 0 0 1 .079-2.282l1.121-1.968a2.471 2.471 0 0 0-.485-3.032l-5.198-4.738a2.455 2.455 0 0 0-3.058-.202l-1.87 1.29c-.655.449-1.498.573-2.241.291-.266-.093-.54-.205-.814-.299-.76-.255-1.331-.89-1.552-1.654l-.598-2.186a2.473 2.473 0 0 0-2.496-1.802l-7.023.33a2.441 2.441 0 0 0-2.292 2.008l-.414 2.259c-.149.785-.66 1.46-1.388 1.786-.271.118-.525.235-.788.361-.709.352-1.555.31-2.255-.078l-1.968-1.113a2.486 2.486 0 0 0-3.032.485l-4.738 5.198a2.455 2.455 0 0 0-.202 3.058l1.3 1.878c.456.646.572 1.49.29 2.233-.103.266-.214.549-.308.823-.237.76-.873 1.323-1.646 1.543l-2.177.598a2.46 2.46 0 0 0-1.802 2.495l.33 7.024a2.451 2.451 0 0 0 2.026 2.31l2.224.396c.785.149 1.469.643 1.786 1.388.117.254.244.516.38.787.35.71.308 1.555-.098 2.256l-1.112 1.968a2.484 2.484 0 0 0 .485 3.033l5.207 4.737a2.467 2.467 0 0 0 3.067.202l1.869-1.29c.655-.448 1.499-.573 2.233-.291.274.111.54.205.823.298.769.256 1.322.892 1.542 1.655l.599 2.186c.294 1.106 1.342 1.851 2.487 1.802l7.031-.33a2.443 2.443 0 0 0 2.301-2.025l.414-2.242c.15-.777.643-1.46 1.37-1.777.272-.126.535-.244.789-.37.709-.37 1.572-.327 2.264.079l1.968 1.112c1.01.56 2.267.352 3.032-.485l4.738-5.207a2.47 2.47 0 0 0 .21-3.067l-1.308-1.886a2.373 2.373 0 0 1-.281-2.216c.102-.274.196-.54.272-.796.255-.769.891-1.322 1.664-1.543l2.194-.616a2.473 2.473 0 0 0 1.802-2.478l-.33-7.05zm-25.7 15.32c-5.85.07-10.643-4.619-10.712-10.462-.069-5.842 4.612-10.642 10.462-10.711 5.843-.07 10.643 4.62 10.712 10.462.07 5.842-4.62 10.643-10.462 10.712z" class="colorfff svgShape"/><path fill="#d7e7ff" d="M255.972 260.058c-6.487.077-11.68 5.394-11.603 11.881.076 6.487 5.393 11.68 11.88 11.604 6.488-.077 11.68-5.394 11.604-11.881-.076-6.487-5.393-11.68-11.88-11.604zm.264 22.33c-5.85.069-10.643-4.62-10.712-10.463-.069-5.842 4.612-10.642 10.462-10.711 5.843-.07 10.643 4.62 10.712 10.462.069 5.842-4.62 10.643-10.462 10.712z" class="colord7e7ff svgShape"/><path fill="#ffc6b2" d="M376.032 588.378c.728-13.603 2.077-36.355 2.077-36.355l4.514 1.627 10.302 9.76s2.65 14.651 4.452 24.968h-21.345z" class="colorffc6b2 svgShape"/><path d="M390.772 706.725h4.6v29.666h-4.6z" transform="rotate(-89.778 393.073 721.558)" fill="#000000" class="color000 svgShape"/><path d="m407.906 719.315-29.666-.115.05-13.107 18.424.072z" fill="#000000" class="color000 svgShape"/><path fill="#ffffff" d="M399.799 711.426h.5v15.722h-.5z" transform="rotate(-89.778 400.05 719.287)" class="colorfff svgShape"/><path fill="#ffffff" d="M384.04 722.587c-.001.453-.047.85-.148 1.236l-.551-.003c0-.022 0-.044.011-.066.09-.364.135-.75.137-1.169a5.171 5.171 0 0 0-1.08-3.203 1.881 1.881 0 0 0-.143-.166 5.243 5.243 0 0 0-4.019-1.914l.002-.551a5.807 5.807 0 0 1 4.603 2.301c.043.056.077.11.12.166a5.719 5.719 0 0 1 1.068 3.37z" class="colorfff svgShape"/><path d="M341.437 706.725h4.6v29.666h-4.6z" transform="rotate(-89.778 343.738 721.558)" fill="#000000" class="color000 svgShape"/><path d="m358.57 719.315-29.665-.115.05-13.107 18.424.072z" fill="#000000" class="color000 svgShape"/><path fill="#ffffff" d="M350.464 711.426h.5v15.721h-.5z" transform="rotate(-89.778 350.714 719.287)" class="colorfff svgShape"/><path fill="#ffffff" d="M334.705 722.587c-.001.453-.047.85-.148 1.236l-.551-.003c0-.022 0-.044.01-.066.09-.364.136-.75.138-1.169a5.17 5.17 0 0 0-1.08-3.203 1.876 1.876 0 0 0-.143-.166 5.243 5.243 0 0 0-4.02-1.914l.003-.551a5.807 5.807 0 0 1 4.603 2.301c.043.056.077.11.12.166a5.719 5.719 0 0 1 1.068 3.37z" class="colorfff svgShape"/><path fill="#1258ff" d="M327.557 706.974c3.415 5.259 21.316 2.433 22.887-.067.223-.359 10.19-83.226 10.19-83.226s16.13 82.544 16.637 82.84c6.162 3.676 17.94 1.919 21.107.334.495-.247-13.22-114.949-13.22-114.949s-51.957-4.64-54.06.742c-1.695 4.331-4.023 113.595-3.54 114.326z" class="color1258ff svgShape"/><path fill="#ffffff" d="M332.603 684.185c-.144 0-.274-4.87-.333-14.715l-.001-25.02c.059-9.836.188-14.705.335-14.705s.274 4.869.337 14.705l.001 25.02c-.063 9.846-.188 14.715-.34 14.715zM329.16 611.577c-.03-.076.405-.3 1.228-.806.812-.516 2.028-1.329 3.328-2.752a13.495 13.495 0 0 0 2.634-4.077 13.49 13.49 0 0 0 .973-4.756c.069-1.924-.23-3.355-.449-4.292-.232-.937-.385-1.402-.308-1.435.057-.026.34.387.692 1.318.336.93.746 2.404.738 4.424a14.163 14.163 0 0 1-1.023 4.995 14.163 14.163 0 0 1-2.767 4.283c-1.41 1.45-2.735 2.215-3.627 2.643-.904.418-1.395.515-1.418.455zM390.466 609.071c-.019.06-.484.004-1.365-.31-.871-.326-2.174-.918-3.654-2.103a14.818 14.818 0 0 1-4.987-8.027c-.407-1.85-.36-3.28-.266-4.204.108-.929.265-1.371.329-1.361.081.011.062.471.072 1.38.021.905.072 2.275.52 4.029a14.142 14.142 0 0 0 4.762 7.665c1.376 1.18 2.582 1.833 3.385 2.253.81.411 1.23.599 1.204.678zM362.025 602.968c.063-.031.351.381.845 1.258.48.882 1.213 2.217 1.87 4.164.52 1.654.806 3.421.634 5.182a10.813 10.813 0 0 1-1.769 4.927c-.583.868-1.262 1.487-1.749 2.024-.5.54-.815 1.037-.976 1.48-.321.896-.095 1.394-.188 1.416-.034.045-.44-.46-.196-1.531.12-.52.445-1.13.936-1.726.489-.607 1.096-1.21 1.614-2.037a10.143 10.143 0 0 0 1.659-4.619c.16-1.646-.105-3.32-.607-4.916-.576-1.896-1.215-3.262-1.589-4.189-.386-.923-.553-1.399-.484-1.433zM394.174 684.954c-.035.006-.13-.333-.282-1.021-.152-.688-.368-1.723-.63-3.11-.525-2.774-1.254-6.953-2.136-12.56l-4.234-28.528-1.867-12.585-.443-3.138c-.087-.699-.111-1.05-.075-1.057.036-.006.13.333.284 1.02.151.688.367 1.723.63 3.109.524 2.772 1.252 6.95 2.136 12.55l4.234 28.528 1.866 12.595.444 3.14c.086.698.11 1.05.073 1.057z" class="colorfff svgShape"/><path d="M395.672 549.953c-.358 1.553-1.606 2.786-3.037 3.494-1.43.708-3.037.967-4.62 1.164-6.827.86-13.943.754-20.382-1.682-6.44-2.435-12.14-7.481-14.142-14.065-1.964-6.477-.13-13.723 3.768-19.249 3.904-5.533 9.666-9.521 15.77-12.444l-1.096-2.565c2.877 1.05 2.308 3.094 3.618 5.864 1.316 2.77 4.488 6.23 3.476 9.123-1.363 3.896-4.788 7.253-4.483 11.37.289 3.852 3.805 6.668 7.36 8.183 3.554 1.514 7.489 2.275 10.625 4.528 2.017 1.446 3.714 3.86 3.143 6.28z" fill="#000000" class="color000 svgShape"/><path fill="#3cd278" d="M393.591 563.755c-.087-.564-.23-1.141-.377-1.778-3.577-15.46-11.283-23.48-12.838-24.287l-9.737 12.143-3.213 13.922c0 .942 26.165.942 26.165 0z" class="color3cd278 svgShape"/><path d="M344.986 500.657c-4.511 2.312-5.83 9.518-6.884 14.477-1.054 4.959-2.092 10.415-6.012 13.63-5.154 4.229-13.71 3.15-17.839 8.384-1.369 1.735-2.007 3.92-2.616 6.045l-3.05 10.64c-.252.882-.507 1.79-.412 2.701.148 1.416 1.141 2.636 2.347 3.393s2.613 1.12 4.001 1.433c6.052 1.37 12.384 2.021 18.454.735 6.07-1.287 11.875-4.707 15.045-10.04 1.524-2.567 2.397-5.469 3.82-8.092s3.618-5.083 6.54-5.695c1.675-.351 3.537-.09 4.995-.985 1.401-.86 2.03-2.554 2.395-4.157 1.45-6.361.174-13.298-3.446-18.726s-9.534-9.273-15.965-10.378" fill="#000000" class="color000 svgShape"/><path fill="#3cd278" d="M387.612 594.205c-.837 3.798-48.08 5.411-52.296 1.705-2.847-2.489-8.647-54.55-4.704-60.053.647-.905 6.393-1.575 13.784-1.841h.007c6.18-.229 13.51-.168 19.972.274 8.068.555 14.502 1.925 16.174 3.66 4.063 4.219 2.759 18.815 3.667 31.67.856 12.103 3.64 23.481 3.396 24.585z" class="color3cd278 svgShape"/><path fill="#ffffff" d="m364.949 552.675-20.546-18.66c6.18-.228 13.51-.167 19.972.275.145.007.574 18.385.574 18.385z" class="colorfff svgShape"/><path fill="#ffc6b2" d="M339.816 564.908c-.193.192 0 10.138 0 10.138l31.023 2.48c1.325.404.02 10.743-1.015 10.614-.23-.029-44.125 15.268-50.606 7.055-5.184-6.57-.898-30.865-.898-30.865l21.496.578z" class="colorffc6b2 svgShape"/><path fill="#3cd278" d="M343.018 565.473c-.13 3.622-26.144 2.215-26.365 1.217 0 0 2.063-20.337 2.717-21.958 3.304-8.243 11.5-9.088 11.5-9.088s9.576 1.599 12.148 9.088c1.774 5.16.061 19.089 0 20.74z" class="color3cd278 svgShape"/><path fill="#0df3ff" d="M342.877 514.705c.02-.02.02-.041.02-.041v.04h-.02z" class="color0df3ff svgShape"/><path fill="#ffc6b2" d="M373.251 523.06c-.489 6.177-11.073 5.301-11.073 5.301l-.097 5.792s-.514 7.592-2.57 8.266c-3.414 1.12-11.562-8.533-11.562-8.533l.004-12.78s-5.912-2.691-5.076-6.401h.02v-.061c.082-.266.184-.551.327-.836 2.16-4.139 8.032 0 8.032 0v-6.667s4.036-3.527 4.485-3.69c.448-.163 9.908-3.16 10.54-3.16.611 0 6.585 5.056 6.585 5.056s.183 2.732.305 6.238c.102 3.364.325 8.437.08 11.474z" class="colorffc6b2 svgShape"/><path d="M375.903 510.566c-.57 1.02-1.55 1.244-2.732 1.02-4.036-.877-10.417-7.503-10.417-7.503-.163 3.955-9.378 10.479-9.97 10.846-.57.367-1.528-1.121-1.528-1.121s-5.871-4.139-8.032 0c-.143.285-.245.57-.327.835-.04-.754-.285-7.705 1.101-11.926 1.468-4.484 5.776-6.701 16.004-7.95 9.65-1.18 18.43 11.273 15.901 15.799z" fill="#000000" class="color000 svgShape"/><path fill="#ffffff" d="M343.113 617.222c-.023-.079.426-.244 1.256-.678a10.713 10.713 0 0 0 3.25-2.603 9.486 9.486 0 0 0 2.1-4.168c.356-1.541.39-3.154.23-4.744-.169-1.882-.462-3.285-.61-4.226-.156-.942-.202-1.42-.13-1.437.07-.016.25.428.521 1.347.26.92.652 2.314.888 4.25.164 1.642.133 3.327-.243 4.961a10.166 10.166 0 0 1-2.248 4.457c-1.334 1.481-2.691 2.18-3.592 2.528-.915.344-1.406.375-1.422.313z" class="colorfff svgShape"/><path fill="#253066" d="M362.171 528.612c-.096-.003-2.394-.083-5.055-1.582l.245-.436c2.548 1.435 4.802 1.517 4.824 1.518l-.014.5zM347.558 517.774c-.018.067-.157.11-.422.068-.26-.046-.667-.173-1.083-.574-.666-.696-.839-1.978 0-2.734.504-.38 1.013-.347 1.28-.241.28.113.346.268.31.322-.06.143-.573-.095-1.152.43-.474.393-.42 1.285.06 1.77.548.639 1.066.794 1.007.96z" class="color253066 svgShape"/><path fill="#ffffff" d="M367.033 565.684c.029-.072.364.007 1.024.149.66.133 1.654.33 2.993.324 2.267.048 4.53-.65 6.378-1.964 1.11-.747 1.82-1.469 2.292-1.95.465-.487.699-.74.765-.696.056.037-.063.369-.455.95-.396.571-1.074 1.4-2.215 2.246a11.365 11.365 0 0 1-6.776 2.087c-1.42-.058-2.448-.363-3.097-.613-.65-.261-.936-.469-.91-.533zM349.5 567.203c.042-.067.428.11 1.198.439.774.32 1.943.794 3.58 1.128 2.759.622 5.687.426 8.34-.557 1.575-.548 2.67-1.174 3.394-1.592.72-.428 1.08-.655 1.13-.592.043.051-.23.386-.904.923-.676.526-1.764 1.261-3.39 1.893a15.465 15.465 0 0 1-8.716.582c-1.696-.41-2.873-.994-3.614-1.427-.739-.443-1.054-.74-1.017-.797zM383.528 564.724c-.144-.001-.267-1.003-.313-3.026l.033-5.142c.073-2.021.21-3.021.356-3.02s.267 1.002.317 3.024l-.034 5.142c-.076 2.023-.209 3.023-.36 3.022zM340.472 548.819c-.164.026-.363-1.113-.882-3.315-.409-1.86-1.154-3.668-2.5-4.976-1.559-1.575-2.789-1.685-2.725-1.88.011-.064.313-.1.891.05.57.154 1.424.526 2.305 1.35 1.473 1.432 2.264 3.388 2.685 5.307.413 2.301.352 3.444.226 3.464zM339.996 563.221c.143.013.239.397.23 1.156l-.17 1.914c-.127.747-.29 1.108-.436 1.095-.146-.013-.239-.397-.234-1.155l.17-1.914c.131-.748.29-1.11.44-1.096zM414.311 556.919l-12.961 35.249c-.148.402-.53.67-.96.67h-26.157l13.713-37.294h25.406c.711 0 1.205.708.96 1.375z" class="colorfff svgShape"/><path fill="#2a0054" d="M400.391 592.962h-26.337l.062-.168 13.743-37.375h25.493c.38 0 .723.18.94.49.218.313.268.696.137 1.053l-12.962 35.25a1.15 1.15 0 0 1-1.076.75zm-25.979-.25h25.979a.9.9 0 0 0 .842-.587l12.961-35.25a.887.887 0 0 0-.106-.822.886.886 0 0 0-.736-.384h-25.318l-13.622 37.043z" class="color2a0054 svgShape"/><path fill="#ffc6b2" d="m370.84 577.526 5.213-.954c.21-.223 2.106-2.168 1.623-3.48-.52-1.4-6.837 4.434-6.837 4.434z" class="colorffc6b2 svgShape"/><path fill="#2a0054" d="m387.946 555.544-13.713 37.293h-2.36c-.71 0-1.204-.707-.958-1.374l12.961-35.25c.148-.401.53-.669.96-.669h3.11z" class="color2a0054 svgShape"/><path fill="#2a0054" d="M374.32 592.962h-2.446c-.38 0-.723-.179-.941-.49a1.133 1.133 0 0 1-.136-1.053l12.962-35.249a1.15 1.15 0 0 1 1.076-.75h3.29l-.062.168-13.742 37.374zm10.515-37.293a.9.9 0 0 0-.841.588l-12.962 35.249a.886.886 0 0 0 .106.822c.17.244.439.384.736.384h2.272l13.621-37.043h-2.932z" class="color2a0054 svgShape"/><path fill="#ffc6b2" d="M369.824 587.62s12.917 3.12 14.763-5.922c1.795-8.77-7.964-5.364-8.534-5.162l-5.214.914-1.015 10.17z" class="colorffc6b2 svgShape"/><path fill="#f0e6ff" d="M397.856 573.235c.123-.022.386.407.4 1.369 0 .93-.277 2.492-1.683 3.947-.604.57-1.352 1.08-2.26 1.278-.447.095-.94.124-1.45-.021a2.175 2.175 0 0 1-1.266-.97c-.54-.972-.37-1.924-.189-2.71.197-.786.487-1.545.858-2.26.948-1.66 2.072-2.584 2.85-3.073.797-.484 1.268-.568 1.337-.45.08.134-.241.455-.831 1.072-.578.623-1.44 1.575-2.163 3.074a9.057 9.057 0 0 0-.745 1.96c-.173.647-.194 1.33.036 1.694.207.37.678.498 1.276.37.58-.12 1.132-.48 1.62-.94 1.18-1.054 1.605-2.281 1.814-3.063.206-.805.23-1.257.396-1.277z" class="colorf0e6ff svgShape"/></svg>