<?xml version="1.0" encoding="utf-8"?>
<svg version="1.1" id="Layer_1" xmlns="http://www.w3.org/2000/svg" xmlns:xlink="http://www.w3.org/1999/xlink" x="0px" y="0px"
	 viewBox="0 0 78.1 99.6" style="enable-background:new 0 0 78.1 99.6;" xml:space="preserve">
<style type="text/css">
	.st0{fill:#7F99CC;}
	.st1{opacity:0.5;}
	.st2{fill:#FFFFFF;}
	.st3{opacity:0.8;}
</style>
<g id="freepik--Shield--inject-85">
	<path class="st0" d="M70.8,11.4L39,0L7.5,11.3c-4,1.9-7.5,3-7.5,6.8v18.7c-0.1,13.1,3.5,26,10.3,37.2c6.8,11.3,16.9,20.2,29,25.6
		c12.8-4.2,22.5-15.3,28.4-24.9c6.9-11.2,10.5-24.1,10.4-37.2V20.7C78,15.3,75.2,12.7,70.8,11.4z"/>
	<g class="st1">
		<path class="st2" d="M39.3,88.6c-9.6-4.3-17.6-11.4-22.9-20.4c-5.4-8.8-8.3-19-8.2-29.4v-13c0-3,1.8-5.8,5.3-7.4L39,8.9V0.1
			L7.5,11.3c-3.3,1.4-7.5,3-7.5,6.8v18.7c-0.1,13.1,3.5,26,10.3,37.2c6.8,11.3,16.9,20.2,29,25.6L39.3,88.6z"/>
	</g>
	<g class="st3">
		<path class="st2" d="M39.3,99.5c2.2-0.7,4.3-1.6,6.3-2.7c4.9-2.8,9.4-6.3,13.3-10.4c3.5-3.8,6.6-7.9,9.2-12.4
			c6.9-11.3,10.4-24.3,10-37.5V21.1c0-7.7-4-8.2-7.3-9.7L39,0v8.8l25.8,9.7c3.5,1.7,5.3,4.4,5.3,7.4V39c0,10.4-2.8,20.5-8.2,29.4
			c-5.3,8.9-13.2,16-22.6,20.3V99.5z"/>
	</g>
	<path class="st2" d="M47.4,38v-2.5c0-4.6-3.7-8.3-8.3-8.3s-8.3,3.7-8.3,8.3v2.6c-2.3,0.3-3.9,2.3-3.9,4.6v14.8
		c0,2.6,2.1,4.6,4.6,4.6l0,0H47c2.6,0,4.6-2.1,4.6-4.6l0,0V42.6C51.7,40.2,49.8,38.2,47.4,38z M41.4,53.7h-4l0.6-2.9
		c-1.1-0.7-1.5-2.3-0.7-3.4c0.7-1.1,2.3-1.5,3.4-0.7s1.5,2.3,0.7,3.4c-0.2,0.3-0.4,0.5-0.7,0.7C40.9,51.9,41.4,53.7,41.4,53.7z
		 M45.7,38h-13v-2.5c0.1-3.6,3.2-6.4,6.7-6.2c3.4,0.1,6.1,2.8,6.2,6.2L45.7,38z"/>
</g>
</svg>
